<mxfile host="app.diagrams.net" modified="2024-05-27T11:58:32.603Z" agent="Mozilla/5.0 (Windows NT 10.0; Win64; x64) AppleWebKit/537.36 (KHTML, like Gecko) Chrome/121.0.0.0 Safari/537.36" etag="A74kSqFsznobG3cOV6Tv" version="24.4.8" type="device">
  <diagram name="PÃ¡gina-1" id="aAeI0zo3ORNOgA4cUkV5">
    <mxGraphModel dx="1434" dy="782" grid="1" gridSize="10" guides="1" tooltips="1" connect="1" arrows="1" fold="1" page="1" pageScale="1" pageWidth="827" pageHeight="1169" math="0" shadow="0">
      <root>
        <mxCell id="0" />
        <mxCell id="1" parent="0" />
        <mxCell id="7aMx-vudad1-3cqpWfX1-5" value="" style="rounded=0;whiteSpace=wrap;html=1;fillColor=#f5f5f5;gradientColor=#b3b3b3;strokeColor=#666666;glass=1;" vertex="1" parent="1">
          <mxGeometry x="179" y="120" width="470" height="470" as="geometry" />
        </mxCell>
        <mxCell id="7aMx-vudad1-3cqpWfX1-3" value="" style="shape=image;html=1;verticalLabelPosition=bottom;verticalAlign=top;imageAspect=1;aspect=fixed;image=data:image/jpeg,/9j/4QC8RXhpZgAASUkqAAgAAAAGABIBAwABAAAAAQAAABoBBQABAAAAVgAAABsBBQABAAAAXgAAACgBAwABAAAAAgAAABMCAwABAAAAAQAAAGmHBAABAAAAZgAAAAAAAABgAAAAAQAAAGAAAAABAAAABgAAkAcABAAAADAyMTABkQcABAAAAAECAwAAoAcABAAAADAxMDABoAMAAQAAAP//AAACoAQAAQAAAAwDAAADoAQAAQAAAMIBAAAAAAAA/+EN82h0dHA6Ly9ucy5hZG9iZS5jb20veGFwLzEuMC8APD94cGFja2V0IGJlZ2luPSfvu78nIGlkPSdXNU0wTXBDZWhpSHpyZVN6TlRjemtjOWQnPz4KPHg6eG1wbWV0YSB4bWxuczp4PSdhZG9iZTpuczptZXRhLyc+CjxyZGY6UkRGIHhtbG5zOnJkZj0naHR0cDovL3d3dy53My5vcmcvMTk5OS8wMi8yMi1yZGYtc3ludGF4LW5zIyc+CgogPHJkZjpEZXNjcmlwdGlvbiByZGY6YWJvdXQ9JycKICB4bWxuczpBdHRyaWI9J2h0dHA6Ly9ucy5hdHRyaWJ1dGlvbi5jb20vYWRzLzEuMC8nPgogIDxBdHRyaWI6QWRzPgogICA8cmRmOlNlcT4KICAgIDxyZGY6bGkgcmRmOnBhcnNlVHlwZT0nUmVzb3VyY2UnPgogICAgIDxBdHRyaWI6Q3JlYXRlZD4yMDIyLTA5LTA2PC9BdHRyaWI6Q3JlYXRlZD4KICAgICA8QXR0cmliOkV4dElkPjdiYjFiZDRkLTIzMTUtNDhmMC1hNWVlLWUyYjUzY2ZlZTk2ZDwvQXR0cmliOkV4dElkPgogICAgIDxBdHRyaWI6RmJJZD41MjUyNjU5MTQxNzk1ODA8L0F0dHJpYjpGYklkPgogICAgIDxBdHRyaWI6VG91Y2hUeXBlPjI8L0F0dHJpYjpUb3VjaFR5cGU+CiAgICA8L3JkZjpsaT4KICAgPC9yZGY6U2VxPgogIDwvQXR0cmliOkFkcz4KIDwvcmRmOkRlc2NyaXB0aW9uPgoKIDxyZGY6RGVzY3JpcHRpb24gcmRmOmFib3V0PScnCiAgeG1sbnM6ZGM9J2h0dHA6Ly9wdXJsLm9yZy9kYy9lbGVtZW50cy8xLjEvJz4KICA8ZGM6dGl0bGU+CiAgIDxyZGY6QWx0PgogICAgPHJkZjpsaSB4bWw6bGFuZz0neC1kZWZhdWx0Jz5CbG9nIEVxdWlwYWNlbnRlcjwvcmRmOmxpPgogICA8L3JkZjpBbHQ+CiAgPC9kYzp0aXRsZT4KIDwvcmRmOkRlc2NyaXB0aW9uPgoKIDxyZGY6RGVzY3JpcHRpb24gcmRmOmFib3V0PScnCiAgeG1sbnM6cGRmPSdodHRwOi8vbnMuYWRvYmUuY29tL3BkZi8xLjMvJz4KICA8cGRmOkF1dGhvcj5hbmFwYXVsYS5raXN0PC9wZGY6QXV0aG9yPgogPC9yZGY6RGVzY3JpcHRpb24+CgogPHJkZjpEZXNjcmlwdGlvbiByZGY6YWJvdXQ9JycKICB4bWxuczp4bXA9J2h0dHA6Ly9ucy5hZG9iZS5jb20veGFwLzEuMC8nPgogIDx4bXA6Q3JlYXRvclRvb2w+Q2FudmE8L3htcDpDcmVhdG9yVG9vbD4KIDwvcmRmOkRlc2NyaXB0aW9uPgo8L3JkZjpSREY+CjwveDp4bXBtZXRhPgogICAgICAgICAgICAgICAgICAgICAgICAgICAgICAgICAgICAgICAgICAgICAgICAgICAgICAgICAgICAgICAgICAgICAgICAgICAgICAgICAgICAgICAgICAgICAgICAgICAgCiAgICAgICAgICAgICAgICAgICAgICAgICAgICAgICAgICAgICAgICAgICAgICAgICAgICAgICAgICAgICAgICAgICAgICAgICAgICAgICAgICAgICAgICAgICAgICAgICAgICAKICAgICAgICAgICAgICAgICAgICAgICAgICAgICAgICAgICAgICAgICAgICAgICAgICAgICAgICAgICAgICAgICAgICAgICAgICAgICAgICAgICAgICAgICAgICAgICAgICAgIAogICAgICAgICAgICAgICAgICAgICAgICAgICAgICAgICAgICAgICAgICAgICAgICAgICAgICAgICAgICAgICAgICAgICAgICAgICAgICAgICAgICAgICAgICAgICAgICAgICAgCiAgICAgICAgICAgICAgICAgICAgICAgICAgICAgICAgICAgICAgICAgICAgICAgICAgICAgICAgICAgICAgICAgICAgICAgICAgICAgICAgICAgICAgICAgICAgICAgICAgICAKICAgICAgICAgICAgICAgICAgICAgICAgICAgICAgICAgICAgICAgICAgICAgICAgICAgICAgICAgICAgICAgICAgICAgICAgICAgICAgICAgICAgICAgICAgICAgICAgICAgIAogICAgICAgICAgICAgICAgICAgICAgICAgICAgICAgICAgICAgICAgICAgICAgICAgICAgICAgICAgICAgICAgICAgICAgICAgICAgICAgICAgICAgICAgICAgICAgICAgICAgCiAgICAgICAgICAgICAgICAgICAgICAgICAgICAgICAgICAgICAgICAgICAgICAgICAgICAgICAgICAgICAgICAgICAgICAgICAgICAgICAgICAgICAgICAgICAgICAgICAgICAKICAgICAgICAgICAgICAgICAgICAgICAgICAgICAgICAgICAgICAgICAgICAgICAgICAgICAgICAgICAgICAgICAgICAgICAgICAgICAgICAgICAgICAgICAgICAgICAgICAgIAogICAgICAgICAgICAgICAgICAgICAgICAgICAgICAgICAgICAgICAgICAgICAgICAgICAgICAgICAgICAgICAgICAgICAgICAgICAgICAgICAgICAgICAgICAgICAgICAgICAgCiAgICAgICAgICAgICAgICAgICAgICAgICAgICAgICAgICAgICAgICAgICAgICAgICAgICAgICAgICAgICAgICAgICAgICAgICAgICAgICAgICAgICAgICAgICAgICAgICAgICAKICAgICAgICAgICAgICAgICAgICAgICAgICAgICAgICAgICAgICAgICAgICAgICAgICAgICAgICAgICAgICAgICAgICAgICAgICAgICAgICAgICAgICAgICAgICAgICAgICAgIAogICAgICAgICAgICAgICAgICAgICAgICAgICAgICAgICAgICAgICAgICAgICAgICAgICAgICAgICAgICAgICAgICAgICAgICAgICAgICAgICAgICAgICAgICAgICAgICAgICAgCiAgICAgICAgICAgICAgICAgICAgICAgICAgICAgICAgICAgICAgICAgICAgICAgICAgICAgICAgICAgICAgICAgICAgICAgICAgICAgICAgICAgICAgICAgICAgICAgICAgICAKICAgICAgICAgICAgICAgICAgICAgICAgICAgICAgICAgICAgICAgICAgICAgICAgICAgICAgICAgICAgICAgICAgICAgICAgICAgICAgICAgICAgICAgICAgICAgICAgICAgIAogICAgICAgICAgICAgICAgICAgICAgICAgICAgICAgICAgICAgICAgICAgICAgICAgICAgICAgICAgICAgICAgICAgICAgICAgICAgICAgICAgICAgICAgICAgICAgICAgICAgCiAgICAgICAgICAgICAgICAgICAgICAgICAgICAgICAgICAgICAgICAgICAgICAgICAgICAgICAgICAgICAgICAgICAgICAgICAgICAgICAgICAgICAgICAgICAgICAgICAgICAKICAgICAgICAgICAgICAgICAgICAgICAgICAgICAgICAgICAgICAgICAgICAgICAgICAgICAgICAgICAgICAgICAgICAgICAgICAgICAgICAgICAgICAgICAgICAgICAgICAgIAogICAgICAgICAgICAgICAgICAgICAgICAgICAgICAgICAgICAgICAgICAgICAgICAgICAgICAgICAgICAgICAgICAgICAgICAgICAgICAgICAgICAgICAgICAgICAgICAgICAgCiAgICAgICAgICAgICAgICAgICAgICAgICAgICAgICAgICAgICAgICAgICAgICAgICAgICAgICAgICAgICAgICAgICAgICAgICAgICAgICAgICAgICAgICAgICAgICAgICAgICAKICAgICAgICAgICAgICAgICAgICAgICAgICAgICAgICAgICAgICAgICAgICAgICAgICAgICAgICAgICAgICAgICAgICAgICAgICAgICAgICAgICAgICAgICAgICAgICAgICAgIAogICAgICAgICAgICAgICAgICAgICAgICAgICAgICAgICAgICAgICAgICAgICAgICAgICAgICAgICAgICAgICAgICAgICAgICAgICAgICAgICAgICAgICAgICAgICAgICAgICAgCiAgICAgICAgICAgICAgICAgICAgICAgICAgICAgICAgICAgICAgICAgICAgICAgICAgICAgICAgICAgICAgICAgICAgICAgICAgICAgICAgICAgICAgICAgICAgICAgICAgICAKICAgICAgICAgICAgICAgICAgICAgICAgICAgICAgICAgICAgICAgICAgICAgICAgICAgICAgICAgICAgICAgICAgICAgICAgICAgICAgICAgICAgICAgICAgICAgICAgICAgIAo8P3hwYWNrZXQgZW5kPSd3Jz8+/9sAQwAIBgYHBgUIBwcHCQkICgwUDQwLCwwZEhMPFB0aHx4dGhwcICQuJyAiLCMcHCg3KSwwMTQ0NB8nOT04MjwuMzQy/9sAQwEJCQkMCwwYDQ0YMiEcITIyMjIyMjIyMjIyMjIyMjIyMjIyMjIyMjIyMjIyMjIyMjIyMjIyMjIyMjIyMjIyMjIy/8AAEQgBwgMMAwEiAAIRAQMRAf/EAB8AAAEFAQEBAQEBAAAAAAAAAAABAgMEBQYHCAkKC//EALUQAAIBAwMCBAMFBQQEAAABfQECAwAEEQUSITFBBhNRYQcicRQygZGhCCNCscEVUtHwJDNicoIJChYXGBkaJSYnKCkqNDU2Nzg5OkNERUZHSElKU1RVVldYWVpjZGVmZ2hpanN0dXZ3eHl6g4SFhoeIiYqSk5SVlpeYmZqio6Slpqeoqaqys7S1tre4ubrCw8TFxsfIycrS09TV1tfY2drh4uPk5ebn6Onq8fLz9PX29/j5+v/EAB8BAAMBAQEBAQEBAQEAAAAAAAABAgMEBQYHCAkKC//EALURAAIBAgQEAwQHBQQEAAECdwABAgMRBAUhMQYSQVEHYXETIjKBCBRCkaGxwQkjM1LwFWJy0QoWJDThJfEXGBkaJicoKSo1Njc4OTpDREVGR0hJSlNUVVZXWFlaY2RlZmdoaWpzdHV2d3h5eoKDhIWGh4iJipKTlJWWl5iZmqKjpKWmp6ipqrKztLW2t7i5usLDxMXGx8jJytLT1NXW19jZ2uLj5OXm5+jp6vLz9PX29/j5+v/aAAwDAQACEQMRAD8A9SoooqjmClpKWgAooooGLS0lFAC0UUUhhRRRQMWikzS0gClpKKBi0UUUAFLRRQAUtFFABS0UEhQSxwB1JoAKpak+YRCD9/73+73/ADqjqOueVlLYDP8AfP8AhTFaX7MjTOzyMuSW/lVKPUhzWyIZDzgdBWPquotbbbe3UPdyj5FPRR3ZvYfrVnVdRTT7feVLyudsUY6u3YVm2WnSKJJ7hw93NzI/Yeij2H+fbRGXmUlhFtGwLGSRzukkbq59az5B5+r2MXUKXlP4DaP1ar9zJhiD1FVNMXzddmk7RQqv4sST/Jat6IzWrKniNhLfW0BOFZwD+YH9TXrOhQmDQNOiYYZbaMN/vbRn9c14/qim81+O3B5YbV/3jnH64r28AKAqjAHArKex0UxaKKKzNQooooAKKKKACiiigAooooAKKKKACiiigAooooAKKKKACiiigAooooAKKKKACiiigAoqveX1tYRebcyrGpOBnkn6DvVgHIoEFLSUtAwooooAKKKKACkpaSgR5drh/f3x/wCmr/zNYVn/AKiL/eP863Nb/wBZeH/po386xbMYhi+p/nWxgdFaD5BV1ap2n3BV0UCFpaBS0CExRjmlxRQMr6j/AMg26/65N/KuNDBU4rstR/5Bt1/1yb+Rrih92mIrXbE6jpJJyTMx/Qf41S1LA1q64/iP9Kt3Z/4mekf9dH/9lqpqvGtXP1H8hQWFrxdR/Wuih5jFc5bki4i4/iHSujgGYx9a1iY1NyZRUyLkimIM1etLZ7iZIo1LOxwBQ3YlK5u+F9M+0XguHX93Dzz3bt/jXbnpVXTrJNPso7dMHHLN/ePc1arlk7s7IR5Ucjpv/IXhP+2f5Gulv13WEw/2a5ywGNWj/wCuldNdjNpMP9g/yoe4o7M8/uh+9arej6SNSW4BfY6BSvoetVrvmY46Vs+FXxdzJ6x5/Ij/ABrR7GMV7xUfTZ7G3njmTAJXaw6HrWJOm2Q132urnT/o39DXD3q4lP4fypQdxzVimBxRtqeO3ZkWQqdhOAccU8QPI2EUk+wrS5FimRyadsOM1qQ6PI5zK4Ueg5NX1trSzTc20AH70hpXBIw4bC4uMFIyF/vHgVfTQ/lG+bDey8VofaHk/wBTCzD+8/yD9Rn9KQw3DctdFT6RoAP1zSuOx1NFLRWRsJS0UUAFLSUtAwooopDFopKKAFooooGFFFFIBaKKKBi0UlLQAtLTaWgB1FApHdUUsxwBQAO6xqWY4ArB1HUGkyqnCDoKkvrxnyB07CsWd8nrwK0jExnPohkafabuOPqGYZ+nete/uorWCSeZgsaDJNUNJTddPIf4F/U/5NVLn/idamUPNhaP83pLIO30H86b3JjsV7KCW8uDqt4pV2GIIz/yyT1+pq+W547VJK9UrmTZbyH/AGSKaRMmYdw3mSM/qSaNDXKX1wf4pio+igL/ADBqJzVrSB5fh6KQjmRTIf8AgRLf1q5bCictd3Sxa1LcPgiFlkAPQlSrY/JWrpbD4hEAcyKO2yTcB+BrlUt49RvZ45Fyjsz9e3I/9nFI3hO3H+qkkQ+oaspPU3Suj06y8dwSYDyxN/10BQ/n0ret/EVpOoJDKD3XDD8x/hXhMuh6na5NvceYPRhg0yO81exO6S3lXHeM8/pS0Y7SR9FQ3dvcf6qZGPoDz+XWpq8CtPG1whCyS5x2mXP6jmr0fjnW1uzNBOTF0WNJNygfQ/55pcvYab6nt9FeZad8UWXCX9uvuSNp/McfpXW6f4y0e/AAnMTHs4/qP64pWLOgopkU0U6B4ZEkQ9GRgR+lPpAFFFFABRRRQAUUUUAFFFFABRRRQAUUUUAFFFFABRRUNzdQWcJmuJFjQdzQImrF1LxBFas0FoonuOh/up9T/Ssy/wBZuNRBSAtbWp4LdHcf0FcNqGq3VvqlvbxJ5NuHO1FI3SleeeenH61SiS5djprhZbqRprqQyzEd+w9AO1dV4dvPtWlIrHLw/uyfUdj+X8q5csDIrA5DLV7wxP8AZ9TeAn5ZQRj3HI/TNOS0IhLXU7ClpKWoNgooooAKKKKBBRRRQB5VrX/L2f8Apo386yLQfuYPx/nWrrBylwfVz/Osy0H7qD6f1rboYHQ2o+QVcFVbX7gq2KBDhRilooAKMUtB6UAVdR/5Bt1/1yb+VcX/AA12uof8g26/65N/I1xf8NUIo3vGpaSf9tv/AGWoNUXOtXP1X/0EVNqJxqOk/wC+3/stSXcQfWLon/Z/9BFItFe2jJmi4/iH866a0t3dcKpJz0AqHR3htLlJjBDKR/DMu5fyr0nS9fsJECNCto3T5QNv5jpRztbEuKe7OTt9B1CXBW0lwe7Lt/nXVeH9HNhK8lymLjHyDIOB3P1/z3rfVldQysGU8gg5BpkykgOg+dOQPX1FZym2aRppaktFIjB0DKcgjIpag0OVsuNWT/rrXS3IzazD/Yb+Vc1acawo/wCmv9a6iQZiceqmqZEdjz66AEntWn4W/wCQm/8A1xP8xVG4t5JpcIpPvV3S0k06czAqzlCuO3b/AArR7GK0Z0OtD/iXN/vCuQmspbmUEAKuBya1brUWkbbNMWbqI1GT+QqvuuJPuosQ9X5P5D/GlFWKk7sntSbXTzafKyFixLLUAuIh8sCmTH/PMcfn0/WmSxwRRmW7lDIvJaZgFH4dKoS+IoCTHYQS3jjug2oPqx7fTNMRp7biT7zrEPRPmP5nj9Kgnn0/TR5tzNHGx6NI2WPsM8n6CsS4udYuSRLOton9yAZb8WP9MVp6f4Rin05L2H95O+d3mHcxwSOppN2BK5Un8TNLkafZSSj/AJ6zfIv4Dqf0qg91rcrb21Hyif4Iol2j8wTWhcWklqwjkjMbAHIIqq4O7vVJXE3Y9MooorI2CilxQBQAlLRik4A56UALRVV9SsImxJe2yH0aVQf51BJr+lxfevEP+6C38hSuOzNGisn/AISXSP8An7z/ANs3/wAKuWOo2epQ+baTrKnfHBH1B5FK47Mt0UUUAFLRS0DEopcUYoAKXFJilFAC4oxS01mCKWJ4oAGYIpZjgCsq8uy+cnCjpReXnUnp2A71SVWZvMk69l9KtIylK+iIJmOcnjAzj/P41nyng1bmfcSfU5qjMecVojIsI8seneRbnbc3blVbH3FH3n/DP5kVZSGKztkt4V2xoMD/AD60zTkDLLcHrnyY/ZF/xbcfpj0p8xqepT2K0rVn377bfH944q5IazNRb7q57E1aM2Y2oOY7C4ZfveW23644/Wtm6C2ei7BwsceB+A/+tWNdDzDBF/z0uIx+AYMf0BrS8RyeXpRHqAPz4/rRLcqGxwF1K0MAwP4uuex/+ulFtrcyfKs8i47H5hSalbs1rbOsgGWYFfUbUYfqzVniEqPu/lzWT3OmOx00HiCQD50jlH+zwa0YtZsZeJkaM98jcP0rigpH1qVJpU6Nke/NIdjtJIdDv12maLdj+Mbf51j3/hJYsy2s+xevXIxWUt7gfOuPcf4U5Jn25t7toyTkh+h/DpQFhWsdXtx0Eqj1wR+tV/tXlvtlgeCTrlMj8xWvYahdw3AlmRXbncVbG/0J9a1pLrSdQTbdW5iJ77dw/wA/hTuSZOn+Ir6zkVra/wBx9GJRj+PYV2Om/Ey8g2rqMG9f723r9CP5kGuVufDFlLGZLS7TA5wGz+YNZY0rUIM/ZpkmUDkIwOfwo0Hc920fxVpesRkwzqjr95WPT8fStsEEAg5B6GvnCK6vNPuUuJLV45Y+RIg6f0rrNJ+IE8JAdgw77TtJ+o6GlYG2ex0VyWmeObK72rK6hjjr8p/wP5iukt7+2usCKUFj/CeD/wDX/ClYE0WaKKKRQUUUUAFFFFABRRRQAUVTv9TtNOj3XEoDH7qLyzfQVzV5qt7qeVJNranjYp+dx7n+lNK5LkkbGo+IIbZmgtFFzcjjCn5U+p/pXPTNLcz+deS+dN2H8CfQUzMdvEQoCIPzJ/rVaa5wcFjGOuBjcR6nPCj68/SrSSM3Jstkknmuc1jRJrjULaaBN26X523YKKcZPX0Hat+3YFCAcgEjkkkfiean6DimTsQGNYkiRc4QADPpTrIONag8s4bzFI/OiUfuzTBIYryKYdVIYfgaHsC3PQKKAQQCDkHpS1kbhRRRQMKKKKACkpaSgR5Rq5zBMfVj/Os61/1dv/u/1q/q3/HtKff+tUbT/V2/+7W3QwR0Vr9wVbFVbb7gq2KQC0tFLTEJiilopAVtQ/5B11/1yb+Rrix0rtdQ/wCQddf9cm/lXFCqQjO1L/j+0o+kjD/0GrM5C6vdZ77P/QRVXU+LzTP+ux/pVi8/5DNxjuqf+g0mWi1G2ACODW/byEL171zCMVFb1tJmIH1pxImbllqlxaNmGUr6jqD+FdJZ+JYZAFuk8s/305H5dR+tcQGq5BaXUpBVSqnu3FEooIyaPQIJYy2YnV4pCSrKQRu7j+v51YZ1RSzsFUdSTgVxtrC9qwkEzbwQcjgcevrT5L03DZ3POfVeQPxPH5VnymqmPQmLUDOBuCybgM9eatXWryspLyLDGTjg4/Ws/ZO/33WIeicn8z/h+NV5bzT7GXa0ga4Py7VzJIfbucfpVWITZZ853/1ULEf3pPkH68/p+NHku/8ArpmI/up8g/x/WsWfW7+UYtLLyUPSS5PP/fI/nmpNG0/+1dTiTVZ5buMk5jY7UOASPlGB2pgtyzJq9jbZitla4fk+Xapuye/I4z+NUbi/1ifASOOyjbox+d/r6D6EV313bQ22lyR28KRIBnaigDr7VxmoAgRnPc/zpRdxyXKXfC+i2V60txfo15cRlSGnYsFznoOg6dKjkjWJiiKFVSQABgCtDwa2ftnp+7/9mqndLi5lHo7fzoW7Jk/dRlXf+vP0H9a7Hwwc6Mo/uuwrkLwfvhj+6P611nhU50p/aY/yFOfwhT+I1bm0gu0KTRq49xyKwJ/CSvKWiuNqejDJrpqKyTaN3FPcwrnxFplq7I05Z1JBVFJ5/lWdN4zt1/1NrI/++wX+Wa4+4fzLiST+85b8zUdTzGigjppfGd4T+6t4EHowLf1FQr4o1SQk+ZGvssYx+tYFSpMEXGKFLXUHHTQ1317U5Ac3bj/dAH8hWRNM9zIZJ3Mr/wB5zuP605pwUICnketRUSkug4xsKCe3SgZpKcKzuaWGyv5cMjn+FSayrS8uLK4WS3leORcDcpx0FaF9xYze6EfnxWNv3OzepJ/WkmO2h3+keO87YdTT286MfzH+FdnbXUF5CJraVJYz3U5rw9W9avWGpXenTCW1naNvY8H6jvVqXczcOx7RS1xukeOoZtsWpR+U/wDz1QZU/Udq66CaK4iWWGRZI26MpyDVJ3M2miWlpKUUxC4pMUtDEKpJOAKAGO4jUs3QVl3l5xk/gopb29Hv6Ko6mqaRsW8yTlz0HZatIzlK4ioxbzJfvdh6UkzYQ+tSSMEUkmqkpYkFuMjgd/xqkZsrSHmqUjlSzjkqCR9e361bkOATVVE86VIv+ejhT9Ouf0FUSbFtCLfT7eEdFQdarzNkmr0xzms2U9alDZXc81kXzZnI9ABWo55rGuG3TP8AWtEZsqxqZNZsI+wLyH8F2/8As4p3i6UrbIg7np+Bp+mIZNfY9orf/wBCb/7CqnimUNe26HoDlvpkf/XqXuaROU1V1ha1jPI8tif+/jgfoFqokqH+Ij3PSjWSf7QCE5KQRA/Xy1J/UmqOR+NZPc6ktDUA3js360ySAOCFZkPr1qgkzA8HpVlbxgADk/jmgLEi2zDq4c/lStGV6gj605LuM/eGPpU6zRkcPj68UCK6l0OVYj6VMt5Kv3gG/SnlFIyVHPcVCLUgsfNJB6Bh/WgCQ3CyOHWWSJwOCOQKntZLmOdJBJHJtIyynaSB2OO3tVQwlf4ePUc03BHIP4igDsodWtrkbLmFY2/vDkH/AAplx4f0++UyRqmT/FGa5NbmVP4sj3q1DqZiYEF429VNAuUtz+H7+0+a1m8xf7rdaS217UdLYJMJIwP4WGVP+far9r4gkOA5SYe/DVoC60+/XZJhSeqyD+tFxepq6N8RGAVLhty9Pm+Yfn1H613Wn6/Y6igKSqpPYnj868gu/C8TkyWjmJuvHIrME+p6LKGcsFH/AC0Q8fjRoC8j6Horyzw/4+mQLHPiRPbt9R2/CvSNP1K31GESQODkZxmlYaZbooopFBXO6zrk8dw1lYKBIOJJmGQvsPU10VcFdTos08gb5WkZi3rk1UVcibshEjAkaWRmmmb70jnJNI02SQg3kdT2X/PoKoXN8I4meZxFGoyVLYwP9o9voOa5K/8AFM09wsWmxK4Q/fdPl+ir2Hv1+lU2kQotnQ61rsGk481maUg7Ao+ZvXHZR2z1/nXFXV5qOuybTmO3zkRqTj6nuT7mrD2l3qV6Lm9wWwFVFHAA7AV0Fnpe1R5g2L/dHU1F29jRJR3LXhSSWKCW1nmeRlIZSxJIHQj+X510grIgjFvNF5agD7uB/n2rVRgVq0ZS3B+VI9qry/djP4VZJB4zVeQfuPo1USdvpcvn6XbP38sD8uP6VcrG8NSb9MKZ/wBXIR+B5/rWzWLOhbBRRRQMKKKKACkboaWmvwjfSgR5Nqv/AB6SfWqdp9y3/wBwVc1X/jzf61Ts/uwf7grXoYI6O2HyCrYqtbD5BVoCgBRS4oFFABQaY0igkDlvQc0n71zn5UX0PJP+H60BYj1D/kHXP/XJv5GuJArtL9N2n3AY5/dtwOO1cYyyJ9xd/wDsk4P51SJMzVeLvTf+ux/pVi941mX3Rf5VX1k4uNNYoy/vjww+ldLb2dk0wu7gAuwCjeeOPQd6TLWiMu2s7i7OIImf3A4H411FhobrEv2iQKcDKpz+tWYJXKhYYcKOhf5B+XX9KssFSMyXVwAg687FH9f1ovYT1HxRWlo21FBk9ANzf/WqbdPJ0VYh6tyfyHH61kS+IrG3Hl2kbTkdPLXan5/4ZrOm1XVLzgOtsh7R9fxY/wBMUWbFsdDcyWdookvZ19vNbr9F6Z+grMn8TKx22Ns8v+3J8i/l1P6VjLZIHMjszuerMck/U96trsQYAFVyickK8t/eP/pl06xH/lnB8g+mep/E10eg6jZaVEsSWcSju6KA/wCJ71go+RwfwNNk4IxlTRypiU2i5NMspkZem/IzVzw6/wDxPLYe7f8AoJrKQ4jNT6VeCy1KG4K7grHIzjqMf1oa0Enrc9Dvxmwm/wB2uF1A5iQj++a62bVLW80u4KSbWMTfK/B6fr+FcZcvvtl/36zgjWozd8GkbrseoTj6Z/xqK+GL2cekjfzpvg+TbeXA5x5OcAZPBFRX9w8t9OYY22mQkFgR39DVfaJ+wilejEicdR/Wuo8K/wDILkH/AE2P8lrlLlZR5ZdgSc8AdK6bwrOoglg53bt3Q46ev4UT2Cn8R0VFFFYnSeO0UnelArM2Fo4oo70gFFHU0hpe1AxRTqbmlBpDKuotiz+rr/6EKxU6DntWtqzYgjHqx/8AQSayQcUhkgNSA8VCD3pwNAiUMa0dN1i90uXfazsg7r1VvqKyxTg3pTuDVz03R/G1pdhYr5RbynjeOUP+H+ea6pHWRFdGDKwyGByCK8LVq19K8QX+ktm3mJjzzE/Kn8P8KpT7mbh2PXiQASTgCsu+vQowMnJwqjqxrFtfGdpfxhJlNvL/AHScqx9j2/GtCOIk+bIQ0jDjHQD0FaxszCd1oNiibd5kpBkPp0X2FOkkWNcmnSOIxk8k8ADqTWfe38dhhpP3ly33IlPT/PrVmdi0qEnfJ97svXb/APX/AM+5rTHLsfwH+fzosZ7ma1Mt0qqScrtGBimv0569TVIllSc4Wn6XHvvlPaNC34nj/Cobg8gVoaQmEuJcdX2D8Bih7CjuWJzgGs2Y9avTnOazZT1pRCRXdsZrGfkk961ZjiNvpWYRmtEZi6IpOoahL/dKRj8F3f8As9YPiRzJqTKvXy8D2ODj9cV0egri1upifv3En6HZ/wCyVzVwftPiRUP3WnRT+DAn9FNR1NkjldZfdrd9jlVndR9ASB+gqhnP0qa48ySaSVlPzsWOOevNQ49KyZ0oeDjpSg1HzSgkmgZNmlEjKcAkZ9DUG45xTg3FAi0lzIhyGP4GrCX3ZgPxH+FZ4alzQFjXS4jbkEj9QKccMMjDcdR2rG3VIkzjvn60xWLrwkyhhIQP7pFNKY7E/Tmo0uyPv8/WpFmRs5yPegBjEKcFhU0dzLH0cn2PNMZUlAJAYdm64/Gk2EYxSA1rPW5rcgB2Re69R+XatuHUra8QLOoG7jcOVP8AhXGuwjGW49B60tvcywy+Yp4/udiKAsbWraU+mOL604iB+dR0HuPaur8Maw0Zinhf5WPzL6GqWlvHf2XkOd0E6FRntngj+lYnhyR7e7ltZDgglWHoQcGmiJHvdvOlzbpNGflcZ+lS1zXhS+MkL2znkDcv8j/SulpNWGndCjqK82ZS8ffjpjrmvSR1rzkdSPQ1USZnCa27avrhtgXWG3+VlzwXzz/h+FatjoyRoNqhB645qOzjX+3b9sc+e3NdBGoCila7BystCGG0jh+6vPcnqasKtSrGGGM4NTJGqY9f1qrENjEh5DN1HIqUDaMDtUNxew2y/Owz/dFZv9urv/1J2/XmhtIFFs1RL82dpCj+I8CpHGUkA+tRQXMN5FvRhn2/rU45Yj+8tNCZu+F3UC5iwQ3ytkng9R0/D9a6GuQ8PzCPVY1P/LVGQfX738lNdfWb3No7BRRRSKCiiigApkhxE/8Aumn1HOcW8h/2T/KgR5Rqv/Hm31qnY8rB/u1b1bizb61SspFxCoO4heg5/wD1VqYo6i2+4KskhV3MQAO5PFVLfeydlH5n/P51aVADnqfU9aQBvY/dUn3bgUbCfvMT7DgVIBS4oAaFCrgAADsOKWloIpiK99/x4XH/AFzb+VcqOBwK6q/4064P/TNv5Vx3mnHFMRl+JPml03nH709PwrYXVLDSFAk3GfaCVVSzEe5P9TWJrDF7rTif+e3+FLqsYfWiD08paC1qaU3inUJwRaQpboeA7/M319B+tTxQvclZLqV5pMbsuc4Pt6fhWOgwAK6C24/KnFEz0WhIkSIPlUCpKKQ1ZkFIRS0GmIYRjpx9KXe698ilpOhoAcshII45pAfmH17U1fvUjcN+NAF6OWRIiEYsuOQKYXJgx71VDnPXFSA/JilYdzoPCdxFBqcnmyogaIqCxwCcjj9KuaqQNRuBkZ31yaOwfK9avwXB2gHipcdblKWlixdjPln610PhQ5iuR6FP61z0kisq+lb/AIUJ/wBKBPACY9vvf41EtiobnSUUUVkdJ453pe9NPWlzWZsLRQDR3pDFxS0lKKQwpcUnWlxSGZusN/qlHXlv5D+tZver2rt/pEYHZMH8T/8AWqhnJFADhThTaUUAPBNLTRS5oAkBpymo6UfSgCYGtTTtevdNwscm+L/nm/I/D0rJBpaE7EtJ7nbxeJ4J4C0SH7Y3yhXPyr9DVnT9KPmG6vSZJn5O7/PT2rz8da2NO8R3thtRm86EfwOen0PatY1O5jKl2O6uD8uPXiqclQ2WsW2q5MO4Og3MrDkdv8amk710R1RyyTTsyhKwEpY9F5/LmtiwTydLiB6kbj+NYcmWDAdWIUfif8M10UgEcaRjooApSCJTmbArOkPWrs5qg4LdKaJkVbg5TA71SYLGrO5CqoLFj0AHU1blI3n0WsfXrgQ6NdszBQybFBOM54qkw5S/o25PDMMh+9Im8/Vju/rXJQTf6fPdnny45px/wFG/+KFdYjfZvCsIBBKWyZwfRB/hXFqfL03VpieFtWX/AL7IX/2WpNFuc6l/GfvKR9KnE1vL1ZTn+8MVi5pQxHQ1kdFjaa3jYZXK/qKhNq4HBVv0rOSaRD8rkfQ1aS/kH3sN9RQFmOaNl6qRTcGrCXsbdcrn8af+6l6bSfbrQBUBNGana3AXhjx6iozE46rn6c0AJmlB5poGfanLwcCgB4Hr+VOHrTRkfWkMgBwPmb07CgCYNJ/CxHuKtxb2QlvzrNAZzlj9BV6SQxWPnKu4jjB6dQKQ7E99alrZJUBJUg4/T/GmrbkAZGD6Vr2qfadMbb2wfz6f1qN4sqrY4Ix+VK4F7w5IUkkgzj/lonse/wDSq8g+y+LrlRwry78/743fzNGmnytRgc5xu2/XIx/Wn+JB5Ot20/TdCCT6lWP9MVcTOa1O50S7+yX8UmcKGBP0PBr0SvKrR8+Uf7w/z+telaZP9p023lJySgB+o4P8qJEwLdedsMTSD0b+teiV5zdsqXNwrkqpZhv9DmiIT2OftrS4XXL0mJgjSbgxHBBHrW9HEFGSc0Fsck/iao3OqpGSkXzv69hVXSI1ZoSTRwJudgorJutXZ8pANo/vVRZ5rqT5iWY9hVuKwCMnnEl3OEiQFmY+gA5P4VDk2aKKW5USKW5fjLse5q/b6XvmECRPc3J5EMQyQPU9gPc4FdNpnhW6uFDXZNlb/wDPJCDK31PRfwyfpXWWOn2mnQeTaQLEmcnHVj6k9Sfc1Nijhv8AhGdSsVFybdFA+8kMm/A9xgfpmpUPKGu9rj9XjEOqTBRxvDfmAauPYia6lWxkMGoWzj+GdV+gY7T+hNd1Xnk4YrMqHDlTtPoccfrXoMUqzwpLGco6hlPseRRLccNh9FFFSWFFFFABUVz/AMes3+438qlqG7OLOc/9M2/lQI8p1f8A48z9arWShPKUf3atax/x6H61DbDEkf8AuitTFHQ24+QVaAqC2HyCrIpAAFOxRRQAmKXtRRjigCrqP/IMuf8Ark38q4kV22p/8gy5/wCuTfyriBVolmdqo/0jTv8ArvUupD/idN/1yWk1QZn03/r4qTUh/wATtv8Arkv8qTKRGBxW9B978KwsVu2/3j9KqIpliiikqzIKQ0tIaACkPT3oooAaD81DfepAfm/GiT75oEL9ach4ptCHmgBQcGp0fgVXzzT1PakBc83Cj0q5a6lPZOJIJSpPBHUH6isotxTw/wAuPek0UmdrY+KIpcLdR7D/AH05H5df51uRXME0YeKZHU9wa85gs7qXlImwe54FXl0m4KjdJGD6cms3FGkakupzJpaSlFcp3hQaSnUgCijvRSGKKXrSUooGYupnN+w7BV/r/jVTHNTXzbr6X2bH6CoQeKAHd6M0CjFIBwqSNN74ZtqgEk4zgAZqLpVi1XfKVMYlDKVKFioORjGR061UVd2FJ2Q0R7ovOidJof8AnpGcgfXuPocUA1XNgElE1ndPBNnAEsmN3ssq/K30NOa8lgkEOpWrJJ/fRQjH3x91vwINaSpdiVK5YBp2aSNUmVmgkWZV+8F+8v1XqKBzWTTW5Q4UuM0gp1IDpfCSALdvj+4P/Qq3Zv8AVSHOAqlj+ArK8LpjT5n/AL0mPyA/xp19qQjOowuVVEiREPcu2SR+QH612Q+E4amsyPT76O5u7NGRlLynjr0Gfy5rp5+Wrk/DKrdapDKoIWC2L8+rHH8q6qU8mhsSRn3B5qtKfLjz3AqzIMyewrPv5cLgHqcUySmfmPt1Nee+JLyXVdbFnC37mAlB6Z/iP+fSu+uJfs9nNN3RCw/AVxWjWSy6kh6knJJ/P/CnYqLS1NjTpZT4ZvopWLi1drdSepHy4z9C35VksgHhfVnbBD7Ixn/vv/2ar1tIY/B9xcE8XV0zn8//ALCqN+BD4KkQHmS66+oU7f8A2Wk9EOOrOK8v3o8o+tSYp4FY3OuxCIm9RR5b+lWAtO20XDlKmMHB604McYyaSX/WmgD1qiWTrcSAY3ce/NTpeH+JfxFU6dwOScCgRfDRSnqCw/Om7CMgHpVJGBYYz7VoWjA3Ox/4htOaAKgkMp/ur6VIq46VP9kVS75YnqR296Ztw2KVxpD0XpVtY/OsZ4h1xkf0/UCqyDNaOnD98V9VP6c0hs0vDR8+0aPu0ZA+o6VNOmI+MYD/AJZFU/DN1bDUFgtg+wEnc3fPH+FT3NzKdVu7TankxsuDzknrRYi+oRkxurjkqQR9RVzxbEDZ2dwP4JjGf+BDP/slV0jZzhVyasajuuvB291ImSKKRsjHzAhT+WWqokyNPSpTJp1vJ3AFeieF5w9lLD/zzfI+h/8A1GvL/D0vmaXt7qx/nXeeFLjbeiMn/WREY9x/9YGqZmtzsa88v8Ld3Ge0z5H416HXnWqqWvrwD/nsw/U1MSpGBeXUszbEyE7Ad6bFZeWge4cRqSAM9WJ6Ae/tWhHbspXy4w80jrFEh4BZjgfhz+Vd/pHh600oLKR596Rhrhxz7hR/CvsPxzSY0cxpfhm+ugGMf2C3P8cq5lb6J/D9W5H92uu03RbHSlJtosysMPNId0j/AFPp7Dj2rQooGFFFFAwrl/ESbb8EfxRAn8yK6iuf8Sp81u/qGU/oaa3Jlsc/J/rAfVa6/QZBJodptHEaeV/3wSn/ALLXIP0jNdN4YlL6dLGRgRTFR+IDH9WNORMDboooqTQKKKKACoL04sLg/wDTJv5Gp6q6mxTTLlh18tv5UCPLtZ/49fxqG0O6SM/7AqTVcvaMxY8MQB9DVXTJFcwjI3eWuVzyOK0MkdXb/cFWRVe3+4KsikAUUtFMAo7UUCgCpqh/4ll1/wBc2/lXKadptxqUu2IYjB+aQ/dX/E+1dTqskEWnTtczLBCV2tI3RQeM/rXGah8TbOyQWmiWG+KP5VkmO0H32jk59SQapNImzex2sOjWFvEiNbxzMvO+VAxz6jPT8KzNU8MwXc5uYH8mbGMHlT/h/niuNt/ipfCUfatPtnj7iIsh/Mk112keMNL1rCQTGOc/8sZeGP07GqTTJcZR1Ocu7KewufJnUBuoIOQR6itW36mqvjG8C6rpkBP3lkz+O3H6g/nVi3yC3P500rMJO6LVIaTdRnNUQFJRSGgApKKTNADf4vxp0v3zTRy2B3q6ml3lywKQOB6v8v8AOlcLFSkXrW7B4cbgzzgeyDP6n/Cr8Wk2Fopdo1O0ZLynI/HtU8yK5WctHDLNJtijdyOyjNaUGh3knLhYx/tHn9K1n1iwgTbE/mYHCwrkfgfu/rVObXpmyLa3VR2aQ5/MDj/x6lzMrkJ4dAgXHmyO59BwKtlNP08KXMEOThWdgCT7E1gy3l7cZ33MiqTkLGdmPxHP5k1AsKKzMB8zcsQMEn60hpG7Lr1qhxGksnOCQu0D/vrHH0zVQ63csciGJPYlm/XiqG0DoBRikOxm0tJ3pe9cp3BSikozSGLkUopuRRmkA4GlxSA0u7g0hnNzvvuZT6uf0JH9KaOcUzOXY+rE/mc04UDH0vSm5pwoEKas2jNGJZVIBQKctnA+YdcVW61KjTi3kFpN5VxuXb84TI78nj04NXT+Ima0JUDtYfZ74qFfmSfPyNllzwOM4HUjr9akaMqXigYTQTHdHA6+ZCq4Q9D8w5bqOneqS6nJDJ5Oo2bJIed8S+Wze5U/K34Vds3UqRZTCUgln8sYkznPzRn8uM5rrTTMWmigbS2knYQSPZ3EIUkOS0S5AIxIOV69+K0Lri5dT1GAT6kDBNQhP3NyyjZK6ojNvOMqpXGAQVPTg598ZqW6wbyfHTzG/nWNbYuDuxgp4pi8fSniuc0Oy8Ort0fP96Rj/If0rP8AEOlm8kDQlUkbhjt+92GfWtXRRt0WD33H9TSXDf6Ru7IM/kM12RXunBN+8yzoFmlulzMoADuEXHZUGAKuynqaNPj8rTYl7kZNRzuORSe4+hTkbaGb61j3bB7hFz93r+NX7uXA2isQz7tU27SQQMN26ZpkrUfqqNJpNyq/eMZxXKaXMunrNPO4RlQlc9+K7ZiCPasQWcN14zgjaNDHBa+bt2jBbdtzj15H5VaehLWpkyo9v4S0u2lBXeWYg+jMSP0equvny/CWkxjgyEufxG7+taXjKb/iYGLOFjQlR78n+gqh4xjMNvptuAdqQj8MZH9KmWxrT+JHH45qQCm4+allbbhR1NYJXOq9izZ2j3l3DbRFd8rhFyeMk4rrf+FdXwXP261z6fN/hXLaDMY9f09j/wA/CD8yBXtAJIreFOLRzVKsovQ8d13wvfaMyS3HltHIdokjYlc+nQEGsUoVPNe261pf9q6PdWmBvdCYyezjlf1/QmvGYB5tyiOM7htGOOe361M48pVKfOtSAEBwCfwFJKp+0MOSB0qPJ3Ensa0ovmTOe1QalRQVINTI/lagHHcBh+B/+tRImGbj3FDoWMMgxx1Pt/kUAbcsa+a393Jx+PP9az/lOMfStJniS3t5ZHVFZAMscZIrPbaXO0gjJwRSBD4xmr1iQl5ET03c1UiUk4AzV+CFYh5szBQPWgGyPRl+y37Ig5jkPP0Nan2RUvLm8uZgFlkLAdOPSqLaiiFhbRgEnJcjqfpVdpHlbdI5ZvU1djNs1ZdVCrstUA/2iP6VqWJa98N3ETHc5ilQ59SCR/MVzA6V0vhiUCOWMgnbIH+uf/1UyGU/CcoaGROuef0/+tXaaLOILyCTdhUlG4+x4P8AWuB8Ng2uqT2x6oxQ/wDAWI/rXZWpw7r+P5UC6nqNcBqAzqN57XD/AM67q1l8+zhlJyXQMfqRXDX/APyE77/r4f8AmalFS2G6cqjW9JBGQbg/n5b4/lXoFedwts1TS39LyMfnlf8A2avRKGOOwUUUUigooooAKx/ESA2cT91lA/Ag1sVna6u7SZj3Uqw/MUIT2OPb/U/Q1veF3bzrxCfk2xso9zuz/JawmGVkH41qeHHI1XG7CtAwx6nK4/QGrkZQ3OtopKWoNgooooAKp6qobSroHOPLPSrlVNU/5Bdz/wBczQI8t1eNY7YBcjnP3iaztEhw0UrEs7RqdzHJ5Ga0tc/1K1W0hcRWw7+Un8hWjMkdXbj5B9KsCobcfIPpU4pDFooooEFJ2paQ0Aec/EyO/kuLCOJi1tIrbY1/vjqT+BGPxrg49OkZ8PxXuOt20U+lzSSR7mgRpE56HaR/IkfjXkaXEn2wxmJHBOM7SMf41E79Doo2e5Sn06KOPPes9opIX3RkgjoRW1fvKz7UwIxycKM/nVWNHkJJX5RURbNpRTI5NXvLya3+0yvI8QCxsTkjnPWvTLdhtJ968zjgUXQfjKvuVTxkjmvRtPZ57OKTZh5FVtq89QDiumnK5xV4NJFzOaTFW4NIvpukRRfV+P061pweHQMGecn2QY/U/wCFW5JGCi2YOTUsNvPcHEULv7gZFdIbXS9PVWm8lCehmYZP0z/SmS67aoAIY5Ze3C7QP++sfoDUuZSgZ0OgXUmDIyRD3OT+laMPh+1TmVnlPucD9KpyazfS8RpHCO/BY/mcfyNVJTNcD/SJ5JB3Vm4P4DA/Spcmy1FG59o0uwJVWhRx1WMbm/EDJqtLr69ILZ2PrIwUfpk/yrKWNEUKBwO3b8qXtSGWJdT1CYf61Yh6RqB+pz/SqbRmVw0rtI46M5LEfic1JQBQAmwDtz704LSgUuKYWGkYpMU40goAMUYp1BoAye9ApDmiuQ7R2OKQnNIaKQxaWkFHegY6kkIWNj6A0vSq9+2ywnb0Q/ypAc9GTsX1wP5U8GmjvS9OlAx4Pel9qYDTgaAH5OKUc0zNLmgCdZXEZjJDxHrG43L+R/nUL2NpPgxMbd16A5dB9P4l/An6UqmnA81Sm0S4k9q1+t1BFeRrdW7OqCZjvwMjAEi8jnnaw7UMxaRm7kk02KV4n3xuyN6qcGlFOc+ZCUbO48U9eaYO1SJ1FZlM7rTV2aTbL/0zB/Pmq8vzNJ6ngfif8M1ctvksIB6RL/Kq8CeZcRL/AHpB+n/667lsec/iNs/u4VUfwqBWdM+M1fuDway5mGCepqUNmTdzhWkY/wAIP8jWfau7XByFxtJz3HNSXEySmQk42vtI657cDuTnFWLPw8bn579nEJ48jO0uP9vHb/Z+mT1FVYEV4XutWkMWmBfKBw944zGvqFH8Z+nA7ntWla6NZ6VPJOnmTXJjAkmlclnyc/QD2AHStmNEiVY41VUUAKqjAA7ACqN8+JJ/oB+lFxM861zF7rzKTkNKi/mQD/OtDX5P+Jioz9yMD+v9azoQZ/FKAjKmU/mDuH/oFJ4uu1j1GcA/MVVR/wB8gGlPY0p/Ec3qc8Ul00kY4UYJ9TVARTzI1wkTtGDgsBwPao3YkYJ6mug0ERzWMkCsgkEmXjKgllwAMZH1/T8cm+VaHQlzPUx7K5+y30E5XJikWTaeM4Oce1dwvxEk4/4liY/67f8A2NU7TRYCs+Iwr5OwrxiuZvreaC6ZShRs8lf54qoVTOdFM761+IETyDz7F0T1STcfyIFcNrohj125mtGJt5JPNibaVxn5iB9CcfhVJi4/diRi/TA4qsZbgA5d2Xurc/pVSmpChT5GK4xI3vV+05jH5f5/I1SfllPqOlWoH2WUxH3guV+uf/rmszUdOjLJlj1XIxUUq77WPBICuQfxoWWSUAu25sY6AVMEHklZGwpbcaALFzMZtJs4FBZlcnj/AD70+GEIm6Zgo+tVftSouyJenc1GXaRssSTVWJbNI36oNsCf8CNQmR5W3OxY+9V1FTJTM2TpVhRUEdWFpiJAMVteHZCt3NGP4o8/iD/9esYVpaG+zVYx/fDL+mf6UCEQfZ/GV6nTe5cf8Cw9dZAcXK+/H6VymrAw+MInH/LWJD+hT+ldRG4V4pD2xQJnofh+US6RGveMlD+ef6iuVvv+Qrf/APXZj+pre8LufKuYSeFYMB9cg/yFYeorjWL4f9NM0luOWxRlby3tJP7l3A3/AJFWvSa8x1E7dOlf+5h/yIP9K9O70nuOGwUUUUiwooooAKrainmabcr/ANM2P5DNWabIoeNlPRgRQI4JeWI9VqxpDCPVbN2bCrIQffKso/VhVdeCh9sVDbRra3BlaR2VLlZzvbO0KwYge3y9PerexlHc9FpaSlqDUKKKKBhVPVuNKuf9yrlUtY/5BNz/ALv9RQI8w1z/AFS1Hpo/1P8A1zX+QqTW/uoPem6aPmiHoi/yqzJHT2/3BVgCoIPuj6VPQMKKKKAEpKWkoAiuVVrZ1YZU4BB9M815c89rYzXFy8DSNvKM46AnOT/n1r03URnTbj/cNeYanDHBLJLdMzJv/dxqobk5LH9QfxqZmtB62KNvdR3M7FIioGc72HP0qK8u02bRwR2NRTtBP9yKcL6sAv5YFZdxJl+T0rNI6ZSsdF4c0i51bzNu2O3RlM07sAIwc88nJPy/44zXqcepaXYwiO1AcKowsCZBH+993P415j4NuYZJpbaRV8wAOjHqexH6j9a7lEA5xz61qlY5JyvoaUmu3EgIt7ZUGMq0h3H8VGB/49VWW5vZ8+ZdSBTyFQ7AP++cH8yaaFpcUyCNYEVmYKAW5JHBJ9/WnhQOgAp4oxTAbilpcUYoAbijFLSqKBCbaXFBNFAxM0UYooAQ0mKdikoEAp2KaKcOlAGQTSGjPtSd81yHcA60opKKBjh1pBR/KgGkA7tVTU2A0+TPfC/matVQ1hsWSgd3H6c/0oGYyn5acKRR8opQO9ACjmlA5pKXpQA4UtNpQaQDgTThTAc04UASrTxUa08GgCQVLHywFQirFsu+4jUd2Aprcl7HfSDy7fb/AHVxUenpm6Qn+FS364p922Ij9antLJZYEkMkiMF2nY2MjrXa9jz1uF3MkaM8jqiDqzHAFZTTS3eBZW7zA/8ALRvkj+u49R/ug1srptnFKJBAHkHIklJkYfRmJIqVqQ2Yljo8NlKbh8S3TdZMYC9sKO38/wAOK0sZxQ7YY49KTdhR9KBCg/MTWTqMgWGds4Ib+lanaud12Qpp9ww/iL4oQ2cfoAabXwW5ABcH3GQf/QxXP+LZ2PiO8jzwjla6bwlDu1Web0iH6nH/ALJXK63Ktxr18zx/elJBPenJXLg7Mxcbjt/KtXRI9t2JG/5ZgZH45qkyIhIUAe9S2901tOJNu4YwR61nKOhtGWp3kc6MoZTWfew+dKXjAzjn5cn8PesGDVPKbKsTET+K+xrU820vUGydVlPB3DmsNUbqwx7G1lh3xREuF24fjB9Sc/WqUmk2ibnlu5iepAiAA/8AHjWmxjWBVS7Vjjo4YH6ZxzWFereTyECM+UDj5SDk+9Ck7ikkU7oQ7l+zhyg4yxBJpY/ljcOflYY61E5eM7ShU/7QpmSxyTmtUZssCZUGI1/E0wszHLEmmCnAVRLY5alWoxUi0yWTLUq1EtTJxTJZOnWrCVXSrC0Ekoq3pz+XqVu3/TQD8+P61UFPjfy5Uk/usD+VAGl4o/c6vplx/skf98tu/wDZq6CPJtkHcDFYfjKP/RLGUZ+WZ1yf9oA/+y1sWUnnWyPng8/nQI7TwzLjUCGP+shzj34P+NUtU/5Dt4PcH9KybTU5dLuxPHmR8MEEh+X0+tWvNuJtRlkumRpnRXJQYHIBH6EUluN/CVtUBOkXijr5L/8AoJr0e0l86zgl/vxq35jNef3Kb7WVT/EpH6V2ugSeb4c0x/71pEf/ABwUmOGxo0UUUiwooooAKjuJBDbSynoiFv0qSsPxRqMVlp4jkkCeYeSfQc/5/GgRza8KpPZqbcQ+cJoenmIV/MYqKxvYb6GUw7sIw+8MZq1KMSK3tmr6GXU7m3mW4top1+7IgcfQjNS1m6A27Q7UH+BTGPopK/0rSqDUKKKKBhVDWv8AkEXH0H8xV+s/W/8AkET/AIfzFAjzPWusY96LAYmUeij+VLrHM8I/2hT7IYuiKszOjgHyipqjhX5R9KnxSAbikxT8UjcUANxSdMnt61V1LUIdLsXup8lFIGB1JJx/WvNtc8S3GruFZjFbhuIgeD7n1qkrgdhrvirS7SzngSU3EzKVxDyAfc9PyzXmGq6rJNLJIhKiQKcA5wQMY/nSSzJsAydoHAqhMu5yVB55wRTa0Kho7lZr2dlIMrEfWo1yxHv0zUxixxjg09bcjgcfzqEjVsbDxJ8vQd/U10um+Kb6x2o5E8K8bHPIHsetYHl7VwBinEj5h61okZPU9LsPE+l3oUGXyJT/AAS8fr0rZHIyOlePK20GtvRNcvtOK5l8y1zzC/OB7Ht/nimoN7GcpqO56OKXFRWl1Be26z28geNu47exqfFZu6KTT1QyjFPxSYoGNxTsYGKAOaU0AMxS4oNFAhKSlxSYoAKSnYoxQA3FPHSkxT0XIoAws+9IaTOaDXIdxdjtoygLZOR60yaONIvlHPrUinMa1FcMNn40ySue1KKYT7ijcPWkWPzWbrTfuYR/tk/oavlx61m6swZY8Hpk/wAqQFADilHFA6UuKADFHSlpMcUDF7UUCkP60CHCn5pmRSg0ASA05TUYNOU80ATir+lrv1O2X1kH86zlNXtOnW3vopmVmWNtxC4ycfWqjuiZbHbXnKqvqa2LUbbZa4+LxHaXmp29oIZ0dySpZRjgZ7H2rskG2FB/siutnBytbiMagc81Kagk+8KAIn4bA7imuOg9aCcydKP4+fSgQH0rkvEshGjkjqS3866onlj6VxfilyunQL2Y5NNAU/BcLLJdyE8F1A+mC3/s9cn4itTBqEhHQSuh+oOP6V2PgsrHatC8i+ezM+wnnauEzj0ytc942Tyb2dP706t+ak/1pvYcfiOWI9eaicBT1IHY1IHIGCtL8rjAwak2IVdkcMp59OxrY0u2+0WzPITvDkbgevesYqVkAxjHNdVozwy2Sxp8kiD5lPf3rOSNIvUry6YXyRM4P4VWeyuoI2cTB1UEnIwcV0RhPsap6ihj0+4bB/1bfyrKxrc5mS/uHBTzG29MZqACk/iNOFapWMm7igU8U0U8UyRQKkWoxUi0ySVanQVAtTJTJLCCrCjj29arpU60xEopSMikFLSA3PE/77w7bS+k0b/mrf4irejMH02DPQIgP5CqmqjzfBeR1RYj+TAf1qXQHX+yItzAZBHJ9yP6UB0NhIFmnheScrEW2kMMhD3IxzzW1eac+maksDzmcmEHeV28dMYyfSsuMD7O3oHz/n8q6XXv3l3Y3PaW3x/X+tLqHQyGAKkGup8KEnwrpoPVIQn/AHz8v9K5BYrgXksjXG6BkASHYBtI6nPU11vhJt3h6Jf7k06/lK9KQ4G3RRRSLCiiigArzLx9cNLrvkk/LDGoA+oz/WvTa8q8cceJrn/dT/0AUCIvDDjF1H3KqR+BP+Nbl7uNi2xyjuvlow6hmIUfqRXNeGZNuoun9+NgPrwf6V1Tu6WpaNN7ryFzjNX0M38Rw1lrN9FLDIlzKCiqFO8/KBxge3tXsmjX51PSLa7PDOvzY9Rwf5V4ekZguTAesTNGfqGNe0eGbZ7Tw9ZxyDDlS5Hpkkj9DUGxr0UUUCCs7XP+QTN9V/mK0azdc/5Bcn1X+dAmebat/wAfcH++P51JZ/8AH231qLVji8g4/jH86dZec123CJ83Q5bj9KszOqhGFA/T/wCtUjOke3e6rk4G44qGGIlBukdsHI5xj8sfrU6RomdqKueTgYz/AI1JRGZc/cjkY5weNpH54zUc0jRRPJI0cSJyx5bj6cc/nVkjj+lcr46ujBoqRKfvyru56Dkjj8D+VVCN3YicuVXOb8Wa818xtYpS1qrgqDj5j+Fcm3Tnrz1p1xKGKn3qHduz8x5raaUXZEUm5RuxQdsYXuaVto+tMwoOOSR70NtPO0dOKg1sMypicH724AfTn/61MZxng09gNqsB94/4Uw7BjCryfSkULuGCfSmock+9KFUrjaOfaowMI3JyKAHuRtH1qdZQse4/cHA96pbx8uTkcninyyFgi/yrelK2pyYiN2kbOianLY6vBL5jLCXAkUHgr3yPxr1PFeLq2MYr1jQr7+0tGt7hjmTbtfn+IcH8+v40q66iw7+yX6MU6gDJrmOoAMCkI4pxoI4oGMxRS44pdtAhhFJTiKMUANop3FJTATFSxqdtRg81YRsLSBHMtDIfuyAH3FRG1umbAuY1/wC2RP8AWreaVOZFHvXLY7bkJ07URwupKPpD/wDXqv8A2VezQs8mqsCCfuxCtpjtVm54GaqWRY6UjufmZST+NXZWM7u5hTaPeEfJq02fdB/Ss+bSNWH3b7cPd2H8q6nn1pMfSszVHFPpesL1bd/21b/Gq5s9XjJwCM13ZUH0phiBPQUXY9Dl9Os9UlJ8xowo/vA5rWGm3GOSh9wa1VjGOBipAPYGlcDI/su4IyCp/GlGk3Pon/fVa+D6UYOehoAxjpd2N5WPfswSEOT+VUiCDg8GunspmjvZSRkbVBHT1q7c6fZakpZlxJ/fXhvx9aZNziwaUHJrSvtCurTLxjzoh3Ucj6iszpQMeDWk2k3KxJJHhwyg4B5HFZqcsB6mpbudotfWT7QIpLcmNYnJy27O0qB1Byo9sVtSgpXuY1ZuNrDyGRirqVYdQRgir2luVvFYAEgHqAR09KtlgZH3Ro/m3XlncOwHP8qrmS3t1gu1jZFlj3Fc5xnGP503S5dRKrzaGmZlWZZhBAJV6OEwR+X1rrNIv2v7HfIQZVYq2Bj6fp/KuCXVLR/4iPqK2fD+r2sN4yGdQkoxzx83b+o/GrTImro7A1VnYg1Db6pFfPItntl8ogOd4AXNTSn5wD1xyKswZFGcsfYU3P3mPrQD8jN0zTDkIoHc0xA7bYHPfBNcH4zl22sCj/nkT/Ou4uGxbyDP8JrzrxrNyiekWPz/AP100HUp6X4iuNPihjeGKNipZZXTJcMxYjPYZI/KqPi2+a/eCZ1RZGOGCdOB1/X9K6JLaP8AsKCO4V5FltAUAi+WJlTcSW9+2fSuO19gBZqOyH+lJlxs2ZikgdD+FP8AlZsnr7VAknY9KmBVh0FI0H7RkMeR3qe2le3lWWJvmU1CqDcAp47Z7U4quSUO056UAdjHIJIlfoGUH86fng81ztvdakkCND5UkQGAGHIx2qxFq9wX2S2L59UOaxe5stUYmogf2nc4/wCehH61ABUlyxkupZGUozOSVIwRyajqkQxwpwpueKcKZI6nrTBT1piZKtTJUK1KlMlllKnWq6Gp1piJhS00U4UCN1v3ngy4BHSJj+Tg/wBK5GW4Z7OKIk7YgcD3LV19r8/hO/X0hmH/AI6TXG26b7+JWwYt6bge4zSKR6XYMx0uIuSWMSFifXHP866vUHEulaO47Rsv/joH9K5mNdls+e5/rW5PcInh/Soyfn3uR9Aef/QhSF3K5HWt7we3/Euu4/8AnnduP++gr/8As1YpXBq1oN6mnatJFMwWC8ChWJwBKOBn/eBA+qgdxTkhQep2NFFFQahRRRQAV5F4xuBP4lvWXorBPxUAH9RXqOqahDpWmzXkxG2NcgE/ePYfia8Surh55pJZGLO7FmPqTQIueHpAutwZ6EkfmpH9a7RS3kSAdRXA6RJs1a2P/TVP/QhXfJ96RR71a2M57lLw54bs7nxBLcXgLll85Y8/KWz8xPryQcV6MK5Dw3PHNq/mI8bqI3jUo2ecqSD/AN8iuwqLGid0FFFFAwrN1z/kGN/vD+daVZmunGm/8DFAjzXWP+PyH/eH86sWI/0t/wDeNVdZP+mR/wC8P51a07/j6f8A3qszOpi4QVIKZEPlFSgYqShp9K82+IV+0l4lpG2QmCw9Djj+Zr0ojFeP+LJBLqF1LEuUmk3xuehAyp/UitaS1Mar0scpNMSy5GCDyKeH5GATUE8sjAqVA+lJE5OMnApTeptTXulnL88AZ6kmlO7qCvFRlwRgdKUPgD/GkVYVsi3j59aj2SZGCtOeQeRED2zzUfnDOc5B60BqPAcDPy/nUWWCng9O1SFw3Kn8KrybsEqfqKBojV8yDBx61Ox/eAAfdHeoosEGVuSvAqVIweWY89cVpTTsc9Vq48Ek7V5Neg+AZSbG7t/7kivn/eGP/Za4IbQuFIT8K7DwBIy313ApDRtEHb6g4H8zWtRe4c9N++d5inbcCgU4gmuM7hhFP42U3FOAAWgBlJTiM0mKBDTSYp+OKTbzTAbikxTyKTtQA0CrUUeUFVwOavQg+WOKTY0jlPwqSHmVeO9R1LbjMwrmOofqMnl6dcN6RnH5U2MFNMiX/YFRa23/ABLig6yOqD8SKsTqqwKvIxgcVb2IW5V78il/CkAGerfpS49CazNBM0uP85oxx979KTB/vfpQMcMUtJg/3v0o5/vD8qQCjHrSnHrmk59RQSccmgZFa/66cj+9j9KvI+D3BrPtSCjsR1c8iratx14oJZeS5Ixu5HrVe70uy1EF8eXL/fTg/iO9MVvelDe9FxHN3+nXelMZXXzIVOfOQZA/3h2/l70tvqtnPfJez20cs6DasqnkD6dM/lXT/aWAw43CuK17w/8A6SbnTAULHLIvAz9O1aQm1sS4qW5s/bQYI3hVZJVmaUxvKIzyCOCRg9emR9aZqn7q1tIefkgQc4z09s+lcyltrVvHukibb0y2MfnVyOaZ4sTKqtkfdOfWtPaNqxKppO6JB6VNboJLqBOxlTPPbIqDgitPQ7KHUNatLadN8LsS6noQFJx9OKFuOWx2Xg+ER6TPc7Cv2id3XjGVHC/yrZZ9zZ9acwWJFjRQqKOFAwBUDNtPtWxxMaHKwAdqYWGB9KikmHlAH0AphbcD6CqEJcyZt5f9015v41kLXxjHYLx+Ar0C6fFq59q808WzNJrUyp98Mirj12imEdzuLq1aLR544vMP7llVQc54rzbXYn86IMDEypna4xgHB/lXpVt4gtbmzS4jTcuMuuceWf7p965rxva2upQR6va7kZNqzK3RlPCt+eB+X4j1HBtM4hYgQn73lv8AZ6VOtrEG+aRifYY/WqrSBXXnJB7dBUvmndQrFvmNe38OXlzITEBFFj5WlYc/kM1bfwjfMGZJrVnUfdR23fTG2r1jfM1tHgnAA5XnFPudQl8vAnBReRKq4Kn3rCU2jphTTMmyxp6SQXzJFJjdtMin1B6HrxUU+t2URPlK0p6ggYH5n/CoNZ1Br1BFdRpJc8eVPH0I9P8A61YrQSq20xvuxnGKV76sbi1oixPcxS3Jl2sVc7mB4IyeQP8AH9KGiBQyRNvjHU45X6iqnPQ8VLDvRw6vgincm1yRVLGtZNCuXiSRJIsOoYAkg8j6VnpXXWpxaQf9c1H6Co5mVyI519Hvoxnydw/2WB/TrUD288IzJDIg9WUiuv3U+M5cU+didNHGrUqmuruIopGHmRI+P7yg1VbTrRiT5IB9iR+maftET7J9DGSp06VdOmQj7ruD74qkOGIHOKuMk9jOUHHclHSnimA08VRBvaSPM0G/j9UlH5x1xcLbXV/Tn8sV2vh/5rK7T1z+q1whQvZ7xyFK5PpkEfzxSKR6yrh4SO2Af602S/jmubCxBPmxQyuRj+EsmD+YP5VBplwlzpUEqnl4gT9cVm2bSXHjKV40LR21qI3YdBlgf5nFJhHqdbbXCyRhX4deOakljSVCrqrKRggjII9CKxdUuvsFnLcKoLr8qg+pNcyviPVB/wAvGf8AgC/4VVyFFvVHoEU1/bIEttRu4kHYsJPy3hsD2FSLfazn/kL3R/7Yw/8AxuuAHibUx/y1Q/8AABR/wkmqN0nVfogqdCrSPQhf6uDltTuCPQxRD+SVFealKkfmXWoTRIOdyzMmfbCkZPtXn0mt6nICGvH5/ugL/Kqck0krl5ZHdj/ExyaB2Zt63rjanKI0Z/JT+JySzn1Of0rIZuKiDUE5FBVia3k8udWB5U7h+HNelDi6YfWvMY/9Yo9TivR4ZPN+zyA/6xEb8wKaImWvDtpb2GootvGI1aRmYAnGSCK7auLsCV1KI9/OU/ma7SpkOOwUUUUiwrL1/wD5B6/9dB/I1qVla/8A8eCf9dR/I0CPMtab/TU+tXNLObl/96qerRySX6bEZuewzV/SoZhMzGJwM91NUQdVEMKD0/SpOnt+n/1qr/aYYFHmOUJ9VNMOqWo6Fz/uripKsN1a9Gm6XcXZUt5aZAztyTwOegGSOe1eI32piZi0s4kYAiONM7EBH+f8a9I8U2D+ImhiS7eC1jGSm37z+p57D+Zrnk8DQLjzLwkf7MWP5k1tCSijKcHJ7HDNIjRltp47npVaPDdc/nXo58D6YxG+e7fHbeuP/QamTwdoiAA2rPju0rf0IqJTTNaceVHnQ2gYCClBDdVXPbivT4vD+kwjCafCf98bv55qdNNsYTujsrZD6rEo/pU8xdjyMNl1UckdhV2PTrucZWwnYY4KwsR/KvVegwOB6CkxmjmHY8wj0HUpG2rpsg92Tb/PFSf8InqxIAsivv5y/wCNelbabIyxxtI33VGaXMFjy280efS2SK62AsN3ytnFV1mjUny4i+OpJrc8Rh7uETZ58z9D/wDqFc+jCIbVJXHc100pXRyVoakvnxnrET6nNdV4EZDrzbVIBgb8eRXKLI/bZIO4FdD4JlVPE9sq7sSB12+h2k/0rSbbizCEUpI9SHWndaR3iibbJLGh9GYA003MAJI3nHohwfxxj9a4rnfYdg4xShSVzUIvCyfu7dic/wATD/2XNKZbpgCsaIO4ILfzK/youFiVUyfpQV6k1CI7rkmYhT/CMD+mf1qH7EGVlkdnU9mYsPyYkUATyzQQFRNNHGT03sB/Omm6h37RvY44KxsQfxxj9aSO1ijQKq4A/u/L/LFP8qPIOxSw7kc0AVvtbOHCQMGH99lwf++ST+lN33jxgokaMDyNpf8Antq4e1KB15piKflXLOreey+qjaB/In9auR6eXQN9plXPbzJP6PScCrkUmIwKTGjkufap7QEyE8cCq+farVoPvmudHS9itqx3z2MP96bcfwBqzdn5V9zVO7JfX7KMfwRu5/SrV2eVGe1VLYmO5XzS8ZpPxo/GoNBfxoA+lANGaAFHJpabyKKQC/hSMcKaWo5m2wsfagZFaH9ypz1JP61aVqqW5xAn+6KnDUiScNTg3rUG6nBqYiRjmoXG4570pamk0ANlfFrKG5Gw/wAq5ccGuivGxZzHP8BrnB1rSAMkB5rofB67vEMP+wjt/wCO4/rXOV03gkZ1uRuy2zn/AMeWtY7mc/hO4mceaQelVbp8H5eKdKxLEdiaqzPkH1rZHGQzPhBzUaTEJgnHtUU7Hmk3bTzyf60xC3LN9lkJORjH615xqzb/ABTz/wA/Mf8AJa9DmObUr9BXmuvEprs7A4IZWB9OB/hQVFamxcRXMXCNJHCHO+EZXfnoffim3011/ZN5FLGqWiogJc/MQWGMEccGty4aDUcNPGyvjG6Nu30OQawfFN3b2mjf2fCWeWdgzs5GdoOe3uB+tJjicS0i4+X8aXzRuzmkEY9KPLx3qNTfQmhv7i2kLRSEAnOKuNrEsyBQqxP3de/4VmspA7UDjpyRUtFKTLtggafyZcMh5Abof8K2oLYgbTI3lqcgE/MvtnuKwrLz7i6RF4BPPHQV0zkRxnAwAKho1UtDlbm4e4uGkkI3cDgenFCUkKBsE4OfXn9KnmG2RR6KO2P0ptaEpkidK62H5YEX0UD9K5FDXXnAJHpUFC55qtd6vDpjx+csjCTOCgzj8z71PmrlxZbHdXiYR5IBEqSFsH+6OR9KaVwZlw65ZXsyRxSEOegZSP16Vc3Uw6ZCjib7E8AXpLNa+X/LNOlTy327gwKqwZc4IIyOvsamSHETPesdTmtUtWKsoArSj1Ma/QtLUg6VWjkycnpTmvbdCF8wMx6Bea2Zglc6bwzhvtKkf3f1zXOeHbaO6hnhmGUdFU9uobmtnwnd+deXKKjKAqnJ78muHe4lhhSNHKq6/MB3x/8ArNK5STN5LrU9Hujp1rfRMjttVty4GfXP3fevRfCdna2/hbUzFKs87GJppuSWO498Yx9Ce5PXFeRabhrg5GcITj8RXqvgeQyaHraEY/dxHH0Y1hKbU0jsjQi6Ln1IfEWG0iZh03Kf/HhXGMyohZugrtNdG7RJ/bb/AOhCuMwCpB9v5itjjiVvtTSPsjUAg8k8kfUDp+JqK7aWKLduLsWC4JwO/YfSrtrAiRTMoC/Lk/kagvFyv/bRf60i76lqFy0CE9xT88YqOHiPHpT+vNMQop6KXOKjoEjBcA4BoAuIqICwOWHT613drlbGzHQrbxj/AMdFefW/Ik9cZH516TKoWUqOi4A/KqRlPQsRnZdh/Qg/ka7avOr7UBZXFnG0Mkn2g7AV/hPHX8/0NeiKdyA+ozUsqItFFYniDVPssBtom/fSD5iP4V/xP+e1SWU9S1vddFIJykcZ2/ISNx7nI/SsubUfOASV5JFzkljkgeg/xrPJzTSaOYOUv/2gFzsjA645wBUTXzEABVx3B5yfWqmaM0+ZhyIlmmeZ97HnoKb5bkZ2nB7nilgRZJAHYBRycmtAXMYfIZcYAGCB/WhK+4N20RnrBK3RR+BFP+yTHtj8D/hVxruJQATuK8DP4emajW7hAU/KShyvXj/x2q5YiuyrLbtFHudhnOMetQVNcy+dISudo6ZqEg+lQ7dCl5iU2nYPpRtNIYwikx7U/YfUUjYRSzMAAMk+lAxuKydcuPLgWBT8z8n6VpwzJNbJcKcIy7vpXKX1ybq8eTtnA+lIaKGoxGfTZ0H3tu4fhz/SuaX7RwMhh7jdXXbQwKnoRg1yZgMErAYUqcZJrehqc+J0Hgr0kix77SBWt4bjD+JrFXBAMnPfPBrL3q65K/MP4l4rovAto1x4jSRd223RpG3D1G0f+hfpXTU0icdPWR6cltFH91SPocD8hTxEg5Eag/SnrTjmuA7yMg9KcFG3k0uw04qFTmgCJuVqLFTkgrwKioAaFo2nNSquaRsCgCMqTTljJoJ4FOU80AN8sA1MoAFMP3qdnFDGcnn8auWn+rP1qlk5q5b8Rj3NYI6GUkPm+Jpj2jgA/MmrF0cyDgcCqmnHfq+pS9QHVB+VWJyDK3PSqkTEjH0pePSkz70Zz3qDQdx6UnHpj8aQUfjSAdj6/nRn6/nSUZ5oAXP1qG7OLZz7VNk1WvT+4I9SB+tAwj4UD0FPBqEHAp4OKQibOe9ODcVDup2eKBEhNNJpuaTNMCvqLYsZPfA/WsIGtfVGxZ49WArGBz3rWGwmPHP0rqvBAAvrt/SEL+Z/+tXKA11ngvg6g2P4Yx/6FWkdzKp8J1Dt8xIqnOcNjPWrDcCqkx5zWxyFaVsHJ9ajB3MWqO6mVBktisi51URK2CQqjLEDJA9aLlKNzbklUoFJAYmvOvEq/wDE4bHRo1P8624dYMzq0C7xnqe4rL8QKTqETsT8w7/UH+tK9ylGzOwtktri1imB2eYgIzx1Ge9ec6z82tXQLMRngk9q9L0Yk6LY/wDXvH/6CK8rvmU6lNjGAcYxTkTT3ZAVUgdM0hT+6/50uFPbHuKTaR0P51JsMORgNxSpG0twiICWbgYpxOcZ61q6MIv3rBB5gxhvapehS1NK1tY7SEIo+bHzN3JpLxsWsx9EP8qmJ4z2qleyD7NIufvKV/OszQwoWCovzY9cnAH9TT3k82TcBjjpWzpmlWU1pvliLtuI3FyP5GrR0KyPIEq/Rv8AEVTdxLQwU5rrWb5ifesufRI1TMM0qt23YP8ASoVs9SRsi7z/ALwP+NRYu5sZ4Nblxex2c7NIiwQjeCboFSzFidwKhjjHGPSuSSLVlOS8T+xGP5CrUH9qo4by7cH/AGZWB/lTi+UTszbS8hZA0BR5MNuuCwVXbGFY+aBgcDgD8wMGLVpFk1KR0fejKhDZByNo7jj8uKoyy38xHnweaB2Mocfk1ITOzZa2dQAAMbcADgAAGlOV1YaSBz8pPtXKpcyvIqnbGhIBPoPxrp5GIjclXUBSSWQgCuSS3BOWYmnSuRVt1JreZVuopJHaYI6sVBznBzip4opcgxQhcYwW4p9pEiHhRWioGK15THm7Gr4PgeO9nZ2yWVRgDpya4e4PyQ/7td14fuFh1NUYDEvygnse3+H41w1yMLD/ALpoY4u7Lukf8fRz/c/qK9R8B/Nb63HnINsWH4GvPfCZtBqEhvGhVPKIBmIC/r3r1Xw/qfhqz0fUXinhFyYpFPlKTlduQOBjrXPKL57nbGslRdMy9ZGdGuP90fzFcVng4+v5c/0rWv8AxdZXMT2UUE+6X5NzhQAfzNY+OK6DhSsIJV2bE346MQRz6evH5UFDJ95cA9ifyNOFOzQMVRtXFLUbTxocM4z6Dk/lUMt8iDGMem87c/1/SlcLFo01TxVe3nNyDIsgKK2MKuM9PX61OOn4mmOxZt2KuWHUDP8AWvSpv9a3vXmcH3yPY/yr0aN/Mt4H/vxI36CmjKoWgA0cZIBx/n+ldpatus4GPUxqf0rjIgWiHs3+f51sX2qiz0a3ijb9/JGBx/COmaUggXbvXrO2Eiq/mSrkbQDjP1rjbiZ7iZ5ZXLOxyTULNmkzUG1hcD1P5Um1ff8AOjNANIA2j3/OlAX0B/Gm5pc0wHYHoKQ49B+VNBpeewNAAT/kUZOOppMN6H8qQhvSkAuc0c0mD7fnSblLFQwJHUUALSE0fjSUAKTmsnXbryLLylOHl4/Dv/h+NavWuP1W7+137sDlE+VfoO9BSJ4dREWhG3XhxIyDnnHDZ/8AHv0rMWozxMOT8y8D6f8A6xUg5pFEgNYGprt1CQ7iNwB61vVk6yg3xPnBII5GRx/+utqDtM58SrwMvkHIxn8jXpvgDTTBpc16ww1ywC/7q5/qT+VeaIpdhGEJLHAC8gn2r3TT7L7Fp1vagg+TEqEjuQMZrbESsrHNQjd3J1Az7Cl680dBgUo5Nch1jeeppWBEdO4zmkJylADFXMZqMrzipA3BqM9aAHjC8VG/LUd6O9ACY5pwGDSqmTQ2AeKAEY/PSMeaGPNIW5pgcrnvzV2HiNfpmqWeKu52Qlj2Q/yrBHQzM0Qlo7ub/npcMc/Q1PIcyN9ah0FCmjwsf48v+dSMcsfrTluKKFzQKb7UtSWLRmk49aBjtSAcKM+1IKKAFNVb1vljXPVhVmqd4f3sQ96Big8DmlBqPNOBpCJc0u7ios0uaAJC1GajzSigClqzfuIx6tWUK0NWbmIfX+lZwNbQ2JY/vXYeDgBZXj+sgX8hn+tccDXVeGJhFplx3LTk4HU/KtaR3MqnwnRySqi8msi6vvmKxjJ9u1Nubhnzk4B7A/1rKvLuK3iLSyJGg7k4FaHOkOmzKSZWOPRTj9f/ANVZ2rSLHpc6oAq7cYHvxVG68QqFItk3Z6O4IB+g71g3N3cXb4kZpCeijp+VF0WotnS+C4hJcSFhld2P0/8A1VD4yIGsMFAGxeP0/wAK1/BNp5OnGSRNsjSkj2GBWJ4pbfrlxnsh/kf8KpbE/aOz0cbNGsge0CD/AMdFeR3hIvZj6ua9fjxDYAdNkePyFeSXK7rmQ/7RokKluysGGe4p2Tg4ORQ0Z7frUZDLUGxIG+bOa1dIx5kox1UVjrzWvpMEi5mbIVlwoPf3qJPQuK1NYHHesu+fK49xWkOTj1qPxTsXWZUjRUUFeFAA5APb61EVpcuT1sWNJ4sR/vGr4NUdO4tF+pq6DVEMd1pQopM0ucUhofgCnCo80oakUSZozTM0E0hkGoNjT7j/AK5n+VckrV1OpH/iXT/7hrklNaUzKqaNqeavLWdada0ENamBQ1O9uLWWIQSFCfm3L1BB9ayC5wNzGupFgmozwwnAbeDuxzjuPyrlpVwsf0qGaw2N/wAJXk1tqrfZrUXErRkbTIE4yOcmvTbSDxNrOiapZxwabBDKm8xl3aQkHIAP3c/WvI9FkkhvWeJ2RthGVOO4r134Z6leXGrzW00pePyCcH1yKwlK0rHVGi3T5zzKLSrx7lrjyj5cTlmyMY9TVp2ZRlULnPQYruryILY3agc+U4/Q1wnU49eK3Ry3uU5tSEbFSVUjqANx/oKpyak78KrN/vH+gwKVolLYwOvIz0Pf8KDCquQM4z6f0pMpWIDPcOMB9q+i8fypBbsx5JJzVoIB2A7Y9fYU/gZGOnbHT6UhljTF8u3kTtuB/X/61XR3+tVLMgCUZ6L09OuKs55b61RI5p/s+1ijMDxxXoemXkc2kWTqDxCqHPqBiuM0y1a/zbr3bJbGdo45rsYYI7aFIYl2ogwBRexLimX0vQikBCfxqu7mRizMxJ96jpaltsaikHy+/wCdO+X+7+tNopFDsrn7o/WgN7D8qbmkoEP3ew/Kjc3rTKM0AP3tjqaQsT3ptJmgCe2i8+dEJwuck+1XHEIaRVRFJcKhZeg7tk/j+VZnWirjKxEot9Szqc0IfEIQIg6qBya5PTdQM+vS5PySKVX8Of8AGrWvXv2e0KKfnfgf1rlYLtrS4S4VdxjOcZxn2qJS1NYR0PQuvSl/GuRXxg7gFbRQD/t//Wp3/CV3B6QRD6k1LmivZyN3V737HYsV/wBZJ8q+3vXHVZvNVm1N080KoQcBen1qtmi9wtYHByrccHn6f/rxTWm2TxR4/wBYDg56YxT9vmDaBkkjA9T2qveAqkM3ZJRz7dD/ADpgXKoawm6yDf3HBP0PFXhUVzG09tJEilnYYVQMkt2H51UHaSZNRXi0P8C6MdR1xbhlbybTEpJ/vfwj8xn8K9aCHb1rJ8PaQNF0aG1wvm43zMO7Hr+XT8K2olLA84p1Z80rmNOHLEYFAoIyaXuQKaQelZliHpTSRjFDAihVwKYDVFNI5qTAFNxk0wsMoA5p+AKaSKBATgUwmgnNNJ4oAcSDTT1600tRkmmBzGM1Z1B/K0i7cdVhYj64qsnLgepp2vNt0aZR/HtTr6sB/WsFudEiWyi8nTbdD/DEP5VWzzWg4225AH3Ux+lZ34UMcRfxpR9aTv0pPwNIYuTSjNN796XIpDHdKM0m4d6TIoAdnmqF2c3SewJ6VdyKzrhs3h9loAeCOKcDUQNOB5pCJQaXPeowaAeKAJM0uaYDS5oAzNUOZ0Hov9apCrGotm7I9ABVYHOK2jsSx4re0u8hstFaSWRUVpW6nqen4nisEVEmnXF/0gkYBm2sSVAGT0P+FaR3M57GhqGvu2VgQoD/ABSDn8B/j+VYLx3GpTBwsssg6Pkjb+PauisPCcavvlBlkPqSf/rmurtPDT+Wu4LCuOBjkfhV6sx5kjgLfw0zkPcyNI3oTn9T/hWrDpCoCkMJ4GTtGTgdzXeR+H7QAeYzv6jOAasrBbRZiSJVj2nfgfeGO5/Omokuo2c1pCCGzRQMdSfzrhvEsmdbnPqCP/Qq7q3PlwqO+BXA+IPm1mf6n+bVQo7nc3k4j0y5PTbEx/IGvKbiVTcSnbn5zg/jXc69qHkaJMd3zyYRfqev6Zrz6pkyqcbE6yZ6HPsaUkHAIqq2VbiniTgfLyO+am5rYsxRBpUAGSWGM/WuizzWBp+ZLtMRkhTknsK3s5rObNIIkhG6eMerAfrVLxFL5mszE9fN2/lx/StGxG7ULYZIzKg/UVjavIJtTlkXo8zOPxJNEfhCXxGzYf8AHmn41bFUrA/6HH+P8zVsHimSSDpSk0wGnA0DFzzS5pvTNOBpDQ7tRTc0pNSyipqf/IOn/wBw1yi11OqH/iWz/wC7WBYWctxcxDaApOfmOARVwaS1IqJt6D7U81opW5ZeG7EyRyyO8aOrERoGk+6BuOAMgcjqe465FUdSsWsryQKh8jdhHA+U8Z4P6/Q1qncwasXPD8Qe9kY/wRHH41wU3SP/AHa9A8OHE1yfSKuAmH+r/wB2kxwLmknF0/8Auf1FeqfC593iCc/9O7f+hLXmnhqWKDVRJOhaJU+YDr1HP4V7Z4Al0aZ52tNhvNvPyEMEyM8/XFc0o3nc9CNVxouNjK1CLEt3F/tOv8685Q5kT3Ir07VBt1e8X/ps/wDOvMGHlS47o2K6Tz4mdKCspUg5Bxt/Dj/H8fwpZT+8JJPTOf8APf8AzxUktqzSNgrtJ4weR68+/wDnFOkhQMXklC85zSLKxOOOnYjt9BTsE5+XOOcenv8AX/P1nQQL9xHf6Dj/AAqVTMeFjWMHuxyfyH+NACQxuglZhhSpAzwe9WFUtJtUEsxAAHUmo/IY/wCslJHdVGB/j+tdR4c0vB+3zL14iB/9C/woYGnpGnDTbMK3Mz/NIf6D6VoUZoqBhSUUuaADFFFJQAuKTNGaSgBelJQaKBBRRSUALTXbYpJ4p1ZGu3v2e1KKfnf5R9KBpHO6tdm7vHIPyrwtZcnANTVFJ0qGaopxHAI9CRVgNVX7szD15qYHIrNo0Rahf94OevFWhWcj4cH0NaNXDYie5bsI990Dx8g3UzU7cNayRKOfmC+nt+uKZo92HaOY4Csp3e3f+lLLMZBg9CS351ojPqRJnaN3XHNdN4OsVnvpbuQZWFcJn+8e/wCAz+dc0K7TwZBeQ2dzJcLsgldWtxuByu3luPXj8qkGdVlQmMUbtq7RTQOMmnN0GBSJI92OBS4PXNJgg80u1j9KYhp96TvSspHWkHpigQjcim9qk2k9KQimBEaaRUhxSZAoAjINMIqYkGmEUxWIqXj1pWFMwaYHNxY81cetR64d1vbR5/1lygwfrn+lTQj96OccVV1bLX+mRZzmcv8AkD/jWC3OhmjcviIjOAR0qhn3qzcMQDz39ag9+KQ0ID70A0HnsKOP7o/KgYuaM0nH90flSjH92kMXJ9aMn1pOMdKPw4oAXPrWXKc3Uh+grS7cVlM2ZpT/ALVADx0p4OO/FRg0oNAEgNLmmZoBpASZpQc0wHFBPrigDIvG3Xsh98fpUY7VkXt/OL+42k7fMYD86jTUrnOP6VuiGby16XoGnwXGh2ayrkGFWHY5Iya850jT57x1a71DT7WE4JLyqWI9hn+eK9X0trKKwgjtrmKURxhFKuG4AA7fQVrBHPVfRE0NjbWbM0Me1mUKzZySBnH8zSNIASKdO+1SapMwC+57VojnZLLOMYXrVdHWOO4mkOFWNsn8KpyGCz81i2zzG3sSxOTjHH5VnXV097GYogyW56nu/wD9ahuwRTbKSSl2yTXC6ptudVuXeXyoVkZclSSSp5x+ddrdX+laZGRdXSI4H3d2W/Ic15nf3puL25aJz5Lyu68YyCc/4VDehtGOupY1jVTqMqqmRDHnbnufWs0U2nCkaCN1oAob71KKQzU0frN/wH+tatZmkL+7lb1IH5f/AK60s1nLc1jsTW8vkXMUvURuH/I5rCuT++jFa0hIibH0rHuT/pCfQ0R2FLc6OxOLKIex/nVkVUsjizi/3atA1RA8UuabmjdQND880uaZnmjNJjH5oJpuaQmpKKWryFNPkwfT+dZVvcMGSQH5lIPNX9ZP/Euk/D+dYdu+AKTWg09T0fT5g6GFyQh/ecybVAAO4NwcqR1Ht2qW4vIpFN0WWWNv3c8TRbVH93j6A854x+Fc/o94GiUcM0X3lPRh6fj3+tak92jW720ECwwPjcu4sTj3PT04xxxWkKiS1M5023oT6dFZRzXctjI5jaI/I38HB7968zuOsf0rvdEjFrDqEXnebIIWLZONo2nHFcDPwyfStG7mUVY2PC9xbWusrLdoGhCMGBGee364P4V7b4CGiS+dNYGE3W3BC8MEyM8fXFeC6XhrnZjJYbQMZr134Rxj7VqL46RqPzP/ANaudv3zs5L0r3NHXF2a7djH8QP5gGvMNRTGoXSZxiV8Y+pr1fxKm3XZj/eVT+gH9K8v1tdms3Ix/Fn8wD/WtzjjuZggB+9JI3/Asfyp6Qxocqig+uOaUGnjmgsKUUCprW2ku7lIIhl2P4D3NAi7pGlvqVwNwIt0Pzt6+wrtQixqEUYAGAAOlQ2drHY2qQR9FHJ7sfWp6lsYYooopAGKKKQkUAFFJmjNAC0maOlJmgBaKbmigB1FNzTs0CEkcIhYnGK4fVLs3l6zg/IOF+ldBr995Ft5KH55OPoK5LtSZcUFROKlNRv0qSzPnGJFPvinKadcL8rH0GajUmoZaJQa04D5ipjqRWVyex/KtXTATEWwflOKcNxT2IrZPJeaDGBHIcD2PI/nVimSIw1CWQAbGVcnPJYZ/pin1oZkN5P9ls5Jc4IGF+p6V6P4Xm2+F9Mxzi3X+VeS69cZaK2Xt87f0/rXsOk2f2LSLS2PWKFEP1A5oexEnqaHn57UjSselNCCnhVpCI9565p4lYDrRtHSkCUxCmYnrSiUDtTTGaQrQApmJ6UnmE9aAopHwOlADTSZp2eKTaG6UAJmkzTvLNPjhzyelAEBNJk1NMiqeDVc9etMDn7UZkbg8D0qjeZk8SWKD+CJ3P48Vfshlm9KzwN/ipyc4jtgPzJNYo3Zbn6/jUOQTU1zkEAnmoM+9IpC5HvRketJn3/Wgn3pAKKWmgiloGLSdKSloAGJ21kKcsx9WNakpxGeO1ZEf3QfxoAmBpRTBS+lAEmaM00GlpAPBoz703NI7bYmb0UmmBxki75XY92JqSKPnOKULzUyLitSSQcCnbvemgUuKLhY1PDruNdtQrNjcSQDgHAJrqNY8TQWbtHNeRQ4ONq/M35Dn9K8+vHeGzkeN2RgMAqcHk4P6Vgcnqa1hJ2MKkE2dpd+OUAZbOz8xj/y1uPX6D/GsG78Q6rf7hNduEP8EfyDHpx1/Gsj8RShiPSi7GkkSPylRU7zCRjA5ptACinCmilFAA33qBQ33qVcZGTgevpQB1Glaer6VFIJGV3YEqU4O5yowc/7PpWh/ZLmTbFPE480xHOVIYAk5yOmB1rPg121RY1XaESRGCjCgBSTgcZ6k9SavR6vZOI1E82FXaM7DsAQhcAYB5bPIp2gybzRUvbaS2iUuUZZBuR0cMGGeoIrBuT/AKQv0re1CWE20KwuGCrhiF2gHPQD6YrnZ2zcZ/2aiyWxom2tTqLXi0iH+wP5VMKhth/o0X+4P5VLQIeDxRmm0ZxQMfnmgGmZqzYW63l4kDMVVskkc9AT/ShK4XtqRZppatOLSorgx+XcOoeQRnfGOMx+YOh9wKjt9Ogu4IJoLsmOYn70WMAbuep/umn7OQlUic/rJ/4l0n4fzrn4W4FdT4isvs+jeeshZXbbhkKMCD3BrkojxS5bblcyeqNzSZyl6gHRgVNdHnmuKikKMCDyDmuvtphPbpKDncP/ANdZSRqmWISsSXr4AL2smT9FOK4ZmVZFLRpICvRif6EV2V0WNncKn3micAfVSK4t8M4x2UVrB3VjGcbO502heH4NQtJLiZAilsJ5TncMAHoeP4h+Vd1oWp32kgadpFtZQB0Bkmfcz5HHTOOp9q4LQtbFraPbPvXaxdGjUHPy4IOSPQdK6Dw3qS33iO0t1unh84hPNaEE7yRjgHnOAOTgU5LqJSex0UV/d6gzTX04mnyVLhQowOnArj/EqbNYkb++qt+mP6V3uq6PHoU0UUUjSLKu8swA+bvj9K4/xRbGQxXSj7o2v9O38z+dV0M18RzYJzUgOKiAIFSR/OdqZc+ijJ/SgtknJbAHJNdnoml/YLfzJAPtEg+b/ZHp/j/9aszw9pLNL9suImUIf3aOuCT64NdRSbASij+VFSAlFLRQAn4UUZooATNFFLQAlHalIqxK8FovkvCj3IAY+ZJsAB69SM44qoxciZTUdyrViyt/tNyqn7o5b6VPEYTp5mltVV8YBDNgsc9M9sc1HALaGBZLkAtKxWIM20cdST6VShrYh1E43LUjSM0/lRqGYiOFSgwPVz+fT296h1aaOFBGNvyDLtgAn8qfAsX2vyZY4JBtJLQgkIR1DcnFcn4m1FV3W8OF3nJA7CqqOyJpK7Of1G7N5dvITwTx9KqmijNc51iU1ulONNNAyBwO9VocFMbTxx9//wCtVmQcGqS/LMw9eahopMtKB/dP/fX/ANatCwkCLJyfXBrKBPqantnKzDng8VMdGU9UaJOeTSjnim+1RXM/2a2lm/uLx9e361sZGJZk6h4ktg4OJblFwew3AY/KvcmuIY/vyKv1OK8Y8G2v2zxVZqwyqMZGyM9ASP1xXsojXGBkfTj+VORkKL+zzj7VDn08wU83cJ5SRWx/dOf5U0QjP35P++z/AI04qPVj9WJqQGG9iU4KT/hA5/kKkW8jf7qTfjC4/mKYYoz1jU/UUqwxDpGo/AUAD3TICfs8jf8AAlH8yKgOognH2eRfrJH/APFVcQoOCBimOoH0oArmeRhlET/gTj+maje6ulODbxEeokf/AOIq1kCkODTEVlnlfqFQ+24/+yikb7YBmOaP6GEn/wBnFWBilzQBVSS9B+dlI9ViA/8AZzUgEsinE86fQIP5g1PxtNNU8GgCm8FznP2uZh6MUH/slM8qXvuJ9fN/+xq6X7GmE89KYGHZnCMcdTWfYN5niPUX7KET9P8A69XYNqxZLHOemRWfpR33WoOBndcMPywP6VijcvXpxPgDt2qtmpblt07c1D+NIpC5ozSc9zQM+tIYueaM8UnOaKAFzz1o4zSZ5oPTpQBHcnFu59qzE4QDtir18cWre9UBwKAJBxSimZ4pc0APFLmmrS0gHA1HdHbZzHvsP8qeKgvzixl57AfrTQHPqKkUUAU8CtCQApwoFKKBlTUx/oLAdyP51hZPet+/DG2AUAnd/Q1lPC/eP8jVxasRKEnqkVc/5zSH2FP4z04oIHpVmZHS07A9KSgApRSUooAG+9UkJUNlun4Uw8tU6WpdA25eexYU0JkokU/wA/VRS7oz/APwU/4VF9kfsR+Bpfsc46KaepOgrMFyVyOnHT60K8ZDAxFifukt0ppt7gcENSGOdf7350DL6XjqgC3DgDoKf/aNwPu3B/FR/hWYVnx0P5Uw+YDyv4laANgarcAf6yM/VakXVLlsHbEQc44PP61i7nx90flSbyDyg/OloO7N3+1ZQwDQL7fNVq11ua2mEy24DAEcv6jHpXNCdgMAsB6A0G4cjBZ8UWQanXr4l8lBG1mjJuLFSd27K7Octnpx+FMi8SWscC2/2RvLO7duclmyMcksT0NcmJmH8b0hlz1bP1FO4rI6HW9Zg1GweGON1kLhyXYsWPA6n2Fc6iMMk4/OniQAY3jH+7Tt6YI3cZz0pPUa0EBwa19M1eG1tpI5ixAOVAHX1FZKzRKeufwqYXFuU2+UpPqTj+lS4plqbRqPfXOoWN1MgMMCKFG3qSSBjP5/rWOoXJ256d6e14wt/IVyIt27YGyM88/qaSFSVJI5JqkktiG29yxbDbHI/oMD8eP8a6nwDGreMdN3dFkMh/4Cpb+lcww2RrGOv3j/AErs/hvCH8QyTMOIbZ2B9CcL/wCzGiQkz0/xJZtfW5MWTJD8yDrnhQR/n0riiFmjMbj6j0rthOwBG4/ez+pNYmr6ezp9ps4YpJFyZImONwwOV9/bv9esiOSOjrG+Y4Ldv9+Mcf0qYwywIHuJhHCp+YIO34Vcia6lJVNP+YHBBkJ/pTpraWeKS3dYY3dSNu05B/HHtUtdik+5H/blgigK5AA4AU0g1+x/vt/3ya5KRWV2RuGUkEHjBpmax9pI6VTidh/wkFl6v/3zSf8ACQ2X+3/3zXH7s0Zpe0kHs0defEVl6SflSHxHaf3JfyH+NciTijJo9ow9nE63/hI7T+5L+Q/xoPiS0A/1cn5D/GuSzSZo9ow9nE6w+JbX/nnJ+Q/xpP8AhJrf/nlJ+lcpn2pKftJB7OJ1Y8TwqwZYXyDkdKkl8XrKQ0kW8joWVTj9K5CkJoVSSB0ovdHXS+LvtAAkR2x0yRQPGMiIEVHCjgDcP8K5In3oDU/aS7i9lHsdW/jCZlZSjkEY5k4/lXMT3T3kzTyfeY5I9Kj7d/zqMcMw981Sm5bicFHYkozSUVQhaaetKaQmgCJxmqM3yyKfwq83eqVyPlz6c0hoUU5WIII6g5qNTkU7moLNcHoayden2xxwA8sdx+nb+v5VpW7b4EPtiua1Cf7RfSODlQdq/Qf5zWsTGWh1Pw4jB1y4kPVLcgfiy16mG4ry74ccapdtzxBj82H+FemK5NEtzMnzRuqMZNLSAcTS54pm4A0hegQ7dSl8ios0ZzTAdmjNJR2oAM4pM00mkzQBKD8ppuaRW4pM80wAnmmE808imEc0Ac+j4QDsOetZ+g/NpIuTwZ5HkH4sTUt/MYNMuJRnKRMRz7VHpyGHSrWP+7Ev6jNY9DoJ2OWJ96Tt0pKB9aQxc47UZpPxo/GkMWik7UUALSdutApKAK2oHEIHqRVIfSrOoEYjXPO6qoNAD6XNNHSl6CgB4pc03NLQA4VW1JsWhHqQKsA1T1M/uEHq1C3AyxThikHelrQQ4UvbNNBpwNICC8YCNRkDnuapSN+7bkdKdrDHEIB/vf0rLyfWmoX1LVflXLYX+L6UGmgnOfWjJrY5QNB4pR6+lIaAEyaXPFFDccUACDLAVbVeBVZGCHJqUTpTQmS4pQKi85PWl89fWncmxMCR3P50u9weHb86iEgHWl8xf72KYWJN8h6uT9TR5jA4BH5UwSL6ilDqe4pBYd5rj+7/AN8il3N6D8qjLqBmrEohXZ5cm4lct7GgCIt6op/Ok4P/ACyT8qUkUo6UDGhY8Y8oUbY/+eR/OnU6gCPZEf8AlkfwNKqRA5KMfxp4pDj0oACIcZWMj/P1pu2EjlT+VPAG2koARYrfOcMKmjMSH5pB04x0qJuEJpYvufjUylyounT53YtRrbSN810qk9yP8K9C8DWdrbW93PFeQ3DSbUICMNgGe5xnJI/KvPFGF5r1LwbbfZ9ASVgQ1w5kwew4A/RQfxqFPmLrUVTW5uqwAHzxjj0/+v8AWrKSMjgllOT0H1+v0qvu+T8P6U8t/P8ArTOcnmufKtHdiflXJYcc4OOfr/OufgkV7svNgYOCwOe/19/88VY1u4YQCBTgMNxP0OB/M1kNGGkJOOR6D+/VpaEtmH4phhj1uWW3YmKYCQEjHPf9QaxCR6V0GuWu+zSZesQ547Fj/XFc7iuSpG0juoyvEWjoOlJ3oqDQXtQaKQ0ALn1FIeaSigBaTHvSUuc0wFpKQ0maBDiaDTc0ufbP1pgL0A46008MOePSlz7U1jx9OacdyZbD+lGcU3qM0o5H0rUzFpDQKDTAjaq0y5Bq2R1qNkDdqBlCI/LjuOKlB7VqX+nwWujvIIwJwFJbJ6kjNU7y1VdGNxApEqEEkHqO9DpshVUxrXX2fTpmBww4Xnuf85rnQafJcTSrsdyVBzj3qMVcVZEydzuPh1clL29g8vKvGrl8dCDgD8dx/KvRBL6CvOfh5NEt3ewkN5jxqwPbAOD/AOhCvQlIqZbiJxIaNzU0EUbgKQhwyTS0wSCkMgpiJjSZAqEyjFM82gCyXppkqDzaTzKYE2+jdUQcUhekBLvpCxBqIvR5mRTAm8zijzBUJ5HFIAaAOU19yuiSjPMhCD8SBVvaYokT+6oH6VQ1wh0toR/FMg/XNaErZGSecCsXsbrcZ26UdulJketGaksO1HfoaTpRmgB1GaTPFHSgBc4pOv8A+ukzRnjrQBRv2y8Y+pqsDUt6f9JUZ6CoRQBIKWmilzQA7OacO1MBpRQBIKoameIh9avD1xWdqZ/eoPRaa3Ao0tJS5qxC04U0U4UgMnWGPmRD0BNZ341e1g5ukGeif1NZ/StY7GUtx3IoySeKbn3pQcdOtMQ8cJ9aSlPQfSm0xCikPLUopKAJFjDgZJH4ZpwhQj75/wC+f/r03dtAGKd5wx92noLUTyF7Of8Avn/69NMe0gg5/Cn+aMdKaZATnpRoGo5DjcMde9DR7ySGA9jmmBwpyP5U8SjuOfai4WGGIqM7gR7VaNkuceY2PXFVmbI4BqcXTADgHFCsDuDWiou7zDx7UkyYwEbjvzQ88koAOMDpimucYGQT1OKNAV7DNr/3v1pcSY6mpEUsMgce5pBIv94UgGfvQM84oEkpOBkn6VIGX+8KXev94fnQMlhjZv8AWOQT0FWRaqefMNUVYbhhh1pGyZT82PfNJjRf+yj++1H2Qf3zVRZhF1mJ9hzVi2TUNRfbZWs8xBGdilgPc9hU6j0JEsnk6Mwj67j3+n+NWYNHknYJCJJHJ4VFyTWxp3gzXbiVJL24jt0z8ysfMb8hx+tehWkEVqqxRxqoUKCVUDOO5xTs2S5pbHG6R4HYus+pb1jHIhB5b646D9fpXeJiNAiJtVRgALgAUI2Vx/npS7sMee/+NPlM3NvcN2FI5z9PanB93Y/e9PemK48057CplIJwDkk8fmadibnGa/LLdXN5FujKoAEBkCkD937gjkn/ACazhExnjJMfP/Tcf89if73+entWjqul6l/at24tJ9sqqVZUJH3o/TvhTVKKw1DNuXsLk4K5zE3H71j/ACwaWpehDBaecsUX7s71VTtnB6yMf71ZLq0bsjjDKcEe9aq3L6fJb2/kGK48yFZQ4wVDFjjFY/mNKiO/MjIGb8ayqrS5vRethaM8U3NGawOgXvR3pM0Z5oAWkNJmimAtJ0ozSGgQtIaMjHWkzzTAXNGaaTmlz70AGfag9OaTNGaYhynipOkWe7H9KiQFmwO9WbhNgCj+E4rVMzZDmkNANITTEHap7KLzblc9F+Y1XzV/S2VklI6h9pP4A/1qoK7M6jtEdrZzpM//AAH/ANCFVooRdaW0BbG9MA+hqbWT/wASqf6D+YqOxYizyOyn+VbSMaexxTdaUUEUgrM1Nnwzdmz8QWj5+V38tsdw3H8yD+FerrIfWvF7VitzEwPIcEfnXsYxmlJCLAkPrS76g5oyakCfd70bqg30b6YibdSZqMPS5oEPzRuplGaAJN1G6oi2KaXoAm3Ubqr76cGoAmD4pfNNRgbjxQUNMZyWosZNRsE9HLH8B/8AXrScnP8A9esqf5tdthz8sbH8/wD9VaO4etYs6EOyaT8qTIPejI9akodn1ApPwFJ360Z4pALn2oNJmjNACn6UZpM0ZGDzQBmXLZum9hjrTKJWzcSH3xSDjsaYDwafm3RFae5SLcSApViT+Q96YKnjgt5Yd08cr7T0E2xf0BPaqpx5mTJ2RG09kgz5l049Utjj8yRThJbzRCSDzcZIPmAD9AT609YtNjIxZ2qEjP7yVpf6inzNG0UflRwouW/1UWwHp2/CtJwSRMZXZEKy9RObrHoorUFY182b2T8P5VjHc0ZDS0wN604HNWIeDzTqaDSg0gMXVTm9x6KBVKtSdFfUZCwBCgdfpVhbW22AGJTnjg/59q0TsjJrUw6McV21joNheaXK8sDq5YiMoCCPfPf8fSsDVtEm03bKoZrduAx6qfQ1S2Jur2MtqbTn602mAvagUGl7UAJkD+EUHntV3SbJL+/EMjOqbSzFACa7GPRvD0carLYXBKgBn81ssfXg4/KkO5wH4UcelejR+H/DdwSI7Sdcd2lapU8IaC/Xcvv5jUriujzXj0pOK9OHgjQ2PEox7yEf1rlfFPh230X7PJa3AmjmLAjeG2EYx09cn8qLjOcBx7il3fT8quWelXV7f2tnHERLc4MYf5dy8859OD+VQXVs9pdzW8gw8TsjDOeQcUwI/MbAGTj6UhNNzijPrQAUtIetOoAcFyuamS0d2wGXGM5zTF+7ThM4bg4oAv2Wh3upNs0+NJWX/WEuoK84zgnp9K6Gz+Hlw+Hv7+NFyPlhUvkfU4x+Rp/gQlmu3CchVG/J7np6dq7fDso4OB7VNxO5j6f4P0WxQt9l+0OM4e4O/P4fd/SuhhRIrdUjRUQcBV4A47CqxRtpDZxQtqsPzRBuh6sT1I/wp3Isy6GPJIH5/WlUgyMfpVUykRgMOcigSkFiO5p8wuRlzcFOMH/OKDJnop/T3qmZiSM8YpyzjkUcwuUtDJm46cZ/Onu5hjdx1UZHX3qmlyBuPfjFSGcSRlSM5GMU7hysqrKd3Mj4x2x6/Sn/AGlkjLCR+BnlgM/pVBpdkiqykNkD9TUU8+bWUDP3f6GlzD5TnjbXF1qDTyyxE+bC7MZ0JOFYnv70k9msGnOVC9YgCJFbPyn0PvVjTrT7VceWu1P9WQG4BbyzgVuXFoX0WYmFYY5drF5P+WKBVzwe4IOB9amSui4ys0cThvSl257gfUGmbjgHPBoyTXJY7bj9o9VP0BpNpP8ADTcml3HrTsAu0/3R+YpCAOuPzpNxo3GjUBOD2ox7GjecUb6NQF2k8BT+VIY2A+635Ub/AGpN49P0o1EIcDqCKT5fWniTHTIpfOcdHYfjT1Aj4HejipftEn/PR/8Avo0nnN3dvxNGoC2rBZs4zxx9adcSc7Mn1NQtKEAc5yD1FDMWJJrWBnLcM0HrSUmaskbNIIomkPRRmrWgkf2Ykn8UjMzH1OSP6CsXV59saQjqxyfp/n+VaugyKdLQDqrMD9c5/qK1pmFbYtawf+JZN9B/MUzTjm3UHoRzRqxzps30H8xTNOP7lPpVyIhscnKhileNuqsVP4GoxVzU0Kalcg95CfzOapiszUs2KGW/t4x1eRV/M162GPWvMfDkXm69ajGQrF/yBP8ASvS1akxE4k9aeHBqDINGaQE5phpoel3Z70CAMacHqM0fWgCxupC3FQ7qUvxQArMaYSaQnNIKYD1z6VKoqIHFO38cUAWFYKaDOM1W3GgAGkBy4G7X2P8AdhH860cn1rNt8trF0391FX8//wBVXwayZ0IflvWjJ9qZmgmpKHZ9hSfgKTPpRmgB3A7CjjHSm54paAA/SkJ+U0ZpjnCHmkBmZzI59WNOHNRp3PqakFMBw6VcDLFFEX8tQZApLovTaSeTz6VTFXWuJw4S1soJGVVBdbYvJ0HU9K0pOxE9SSO/gdvL+WTOBiNC4C4PHAz6fnUV0NrRrsKfIOCpX9DzRI+sv8stw8SH1kSEj8BzUcpPyKZfNZVAZ8k5P1PNXUleJMI2Y0Vk3EUb3MhMjA7j2rXFYrtukY+rZrGBpIBbQn/lrJ+QpwtoP+e0v5Cmg04VpZEXIruJYrR2hmfzFGRuA/GsU3tz/wA9T+QrbuFaS3kRFLMVIAH0rHXTb0n/AI9ZT9FNPQTuSwFnO9ySzck1bRSxCAEk8Y96W203UScDTrk5/wCmZruPDHheSC5jv79QGjwY4gwJB9WqWxnQ6XpC2OlQWzBN6rl+M/MeT+pp9zpVrdQPDPEjxuMMpGMitMPnHIH5UNn++P1/woTM7Hz5qEK2+o3MC52xysgz1wCRVYda0vEEZi8Rakh7XUn/AKEazh1rUBO9b+heE9Q1vbKiGK07zN39lHc/pWCOte5+G7U2/hvTo923/R0bHoSMn9TSk7AYkXhhrWNEt02KgwMEE/jSyaVe+XtMeRnJ46113lkgfOfrkU7yyO+annFynHJazW8W3yjnHNKu9B8ynNdcYx0Iz+NRm3jJ5i6dzzT5xcpyUhJU8Ecelcl4jjlWzVBA7LvDGTHA4I/rXrD2Nu3WIflioH0y2Jzt2n2o5kCTR5R4ejlmulnkQqlvEYoyARyST/U/nWTq6FNVuQe7luffn+tezvo9uect+JzXnHjvSfsGqwzIP3c8fXH8S8H9NtF0UrnI4pMU/HNLszTGWIorY2Mkj7vOXhVzwc9D/n0qqKXtilFACk88HijnBNIOTT1GSB60Ad/4BvoNMsbp5YS5mcAEDsoP/wAVXap4i01usO3n+KuK060e0063iKHcE3Nx3PNSyiRGBKsuB3FQ0B10+taY9u6RsgYjAIHuPb2/WpbDULHygrneSfvcDjj1/GuISIYQFu2W+ner9nhbZCQMkUhWOzM+mtgGFW+hU+nvTiLErkW0nTshPr6H6VyKyBiSCQfaposhT8x/OgDqQ2l5JaGRcnqVf1+n0qMf2YOpkU47hvQeo+tYKTTxjCzODj1p8t9dqn/Hw5P1oCxtmHSpCx8yQKTjIOO5phg0to1Zbtgf95fT/GubutZvY7cqzq6bgFVlDY9TzVD7cWQO9tA2eCfKUdsY4HpxRoFmdjJpukyvzfbscqR69un1NQyaJpzRsq6jgsCvzKMDtn9a5M3dswwbGLHPIdgeRjsRjgYqUXlshLG2mUHP+rkb9MnjtTugsySzgSOG72q7MrIoZV35wmBwCCPwP41qmOZnu5JI1lSSPKqHBbPfHBB7/nWVDqFu8UyoJUSTiT5uv6CriTWLWXlLdzxKQVUovKf7pJ4wcH8KpSRLizkNSjEd0GUShXRGBm++SVBO73znNUpGKxsyjJA4FdDrlokyy3iXIkZW3NuwCQcDAwe39TXPkBgQehrCVuY6oNuJk/b7oE8pSnUbgKMoufWs+ZDFM8Z6qcU3JrflRjzNGiNUnAyUBFOGrOOsQ/OsvcfXijJ6UckQ52ay6sp4MZH60v8Aasf91vy/+vWPmjNHJEOeRtDVIu6kUv8AaUBPcVidTRS9nEfPI3Bf25P3x+Rpy31u2QHx9axRE2VzwD0NIy4JpezQ/aM6IMCAQeKBzVGznUhYwxLEHIPbFXfpWTVmap3QMA6FfWiNt0YJ696O9MT5XZffP+f1qoikTZpvegniq17I0VrIyg5xjPpnirRDMe8mM90754zgfQVteH5QLaWPuH3fmP8A61c9W9oMCy205ZAQJYxuPbhs1rHQwnqjR1Js6dMP9n+tN04/uU+lLqUcMemuBjecdD09ap2V2qRqCrcccYqpEwMvVjnU7g/7VURVzU236hK3YkH9Kp1BodB4QUtrRIH3YmP8h/Wu+HSuI8IvBBLczzSoh2hF3MB7n+QrrFv7RhxdQk+gkFSwL3b3oBNQJcI3Rg30NSbxu60CH5pckVD5mTw2MGpS4KDmgBSeaCTUe8etSBh3oENyacCTULyENwOD3pynjNAE+3NNJC0wyY700NuPWgCXcDT+MVFwO9Bc4OKAHlgDSb6YFLc9qccLwaYHM6e2+8vpOxlC/kK0AT2qho4328r5+/M7Z9s1ezWMtzoiOyaMmm596M1JQpNH4Um6igBe/SjNJmigBSfao5mxE30p5NQXRxAxz2oAoJ90fSnimDhRxTxQA4VO1zPIgR5pGUDAUscCq9PpXCw4Uv4U3NKOlAD84BPoKwgea2ZjiCQ/7J/lWKKuApDwacDUYpw9a0INDSFdtSjKM6sMncg5HBrqBNdfdW/uQcc704FcWl7LYkzwttcDAOKuReLLkDEsMUnryQaynFt3RSaW51i3V4ANt2re5izjH0q5Ff3MeN7RyjPOBjNcmnimwc/vbF05zlXzz+lWotZ0iQYWV4j6Nx/SotJD91naQX6NgSb0yT/ATjFWxPZiPLXOT6iMr/OuJ+32TE+XdoSeeHDE/wBamjvwjBULtuxghH79O1NSfYlwRyfiTw8y65eSJdiSOSUyBimD83zep6ZxnPNZSaJkjNx+Sf8A166/Vo7m51Fo44nkkBAZgOOg79K0dK0BIlEt2olc9E6qP8f5V1RUmZSnGKOVk0iylcIlsd5OBtJzXsNppZt7SCCMxbI41RDuPQDArkzp1qLzzWh2ODuXaSuSPbOK0Lcb5ch8rwMH+Gm6Whn7ZN6HSfYJd3AjP4mlNhOD91c/U1iXQNthm3CNukgJIP1FRieJ25nXBI6Kf8a57paM15WzdNjcZwIlOe4NJ9guugjP44/xrLTymX57sn6D/GlC2gOftMx57Yp3QWZpfYbsdIs/jR9hvT/yxOPrWcfsIzm4n4680hezzzd5z2K//Xo0FZl9tPuu8DfkK5nxr4cudS0CQpbuZ7Y+agCkkgfeH5fqBWjPNEEH2a5iRhyS4yMfgRQb+KPhrxFx6yj/ABouh2Z4OwxTa7LxT4ahW5kvdKmheJ2y0AkXKnrlRnke3UemK45lZWKspBBwQRWidwEpSccUYPofyo2MTwrH8KYD1UnA9a6TwjoUmsasrmMtbwYeQ44IzwPxP6A1FoHhi71fDMUggz80kjAcew616to+mppFiltYzlUJ3MwP329T+n5VLkDHm0U9YgfwqNtPtz1iGa1Vnvh924Y/Wl+134/5bg/lRdEWZiPpds/BX8NxpjaNbsoX5gOuAa3jd6gf+WwwPYUfatQ/565HoAtF0Gpz40S3X+KUfj/9agaQo+7LIB+FdB9sveOn4qtKLvUOnyn/AICtLQepzp0uUHKzH/vnNMk0y5Y/65cD/YP+NdGbi+Y/ci/FEpDNdE8xQ494ko0DU5KbRLt1wZIz68Yo/sy5WERmKJlByMPjJrrEabn/AEe29P8AVrSlpv8Anjbj/gIo0C7OIOkXIdi0OR7MDUjWs6lB9kchfTH+NdnmTOTDbcdMqP6U1m2/eitFHutFkF2cNdQSMpJgcfRf51nTyzrJhYmwvdhivSPtKE4ENo30jJ/lRuLEn7DaEf7h/wAaLIfMzzUXRCPHMpww2n/P41k5wcHrXrzQo5w1pac4x8hrgfGFgtlqaTRxrHFOucIMAMODx+R/Gs5JGtOWtjh9Wj2XCydnH6j/ACKzq3tSj82zLY5Q7h/WsLrWtN3RM1ZiUZopKsgKKKM0ALnFGaQ0E0AWYpMpgjIB61HJkkkg49SKSBsSAdm4PNT3AVcgc5549uKAG2r7J0bPQjP0rcrnAcGt63k8yBG9RWVRdTWm+hKee1MPDqfXg04mmyH5CR25rNbmjH9aguLiF7W4tGjJdyuJM/cxz+OakeQJGznoBmsyIMxLtjcTnNbxVzGbK0tm6crl0zgHHP5VqaFb3u+YRxMEdAQzrhcgjH14z+dQfaGjlDIxBU5BHGDXcWMaanp8d0gUPIhDDGMN0JHpzWsI3MKknEwbmwWe3ET3SHcckqpBrMbRJgx8u7h2jpuDD+ldZPARNIoWPhj1U/41GIiOqJ+GalplJqxwd7E8N00TsGZMAkDAqCrN/O1zeyyFQoLHAxj86rBTSsVc0dP+2CFzbwNIhOCQpPP51Y82/T71jMP+2RFbOj2wh0yLgkuN5wPX/wCtWkIQfUfWnYXMjkJNQk6SwH/gX/6qRNSjX/lkB9K7LZtH32A9iaPIWTqQ3sTmizFzI5RdZwMCSZf91sf1qRdafvc3H4yMa6R9NhfrbxZ9TCpqI6LZt1toj9IwP5Yosw5kYq69MOBdsB7rn+YqZfEFwP8Al8/Aqg/pWgfD9kf+XaPH1Yf+zVE3hyzJ4hI+kpH8waLMd0Vx4hnJH7yFv97/AOsalXxHdgfdtyPZW/xqNvDlof4pF+koP/stRN4agP3biQH3VT/UUg0L6+IpCPnhX8Dj/Gnr4l2jItQf+2v/ANaso+GH/guW/GP/AAJpp8N3gHy3K4994/pQFjbXxGkv3onX6EGpo/EFtjBhuD/wEf41zbaDqCf8t4T9XI/mKifS9TQZDRsP9l1NAWOwGv22Od6D/aX/AApDrdgTk3P/AI43+FcUbfUo+sT/AFwMfmKbi/8A+eb/APfJ/wAaNAsdRo+V0mEf3gSfzq8CfWqliNljAvYRj+VWc/WueW50IcSc0m6kBz3o49aQxSQTRmm8Gl60AHWj2pMj0ooAU9arXp/cEetWM1UvT8ijPU0AVx0p2aaKUGgB4p2ajzzTh1pAOBp45+tRg1LCN0qL6sBTW4Mt6uY49NmVIVQKyqG28twQefqK5cGun8Qgw2bIzhmkl3YB6AYxXLitnuZR2H04GmCnCgZDeLutuDj5x29jVHy2HGT+VX7lpRFiJNxzk8dKqbro9If0NWkZyepH5bZ4zS+W/YH8qfuu/wDnl19qUG7PIiFOwrjVEqnKlgfaus8Gpd3d/K9xczG3hj+6XONx6f1P4CuVK3neL616Xo9rDpmjwxCWMyuBJI27IZj/AE7fhQoq5M5tLQtt+5bMzZJOFUD71SKkkmHMmHH3R2H19ahZFkcuzgv0BBPA/KmSi5WMiJ1ye5P8vWtU0jmauX2bKK7hY2J24Ld/Y1C4Vk3Ku5xwCnBH41mQ/aomAY4GcdexNTGS48rG5VIJzvcjsKq9xJWZoLqrxybJEYRNw6uvUf1rNnW1lJKTX0JOTtilUKv5ofXuaydQ121sOJdsso48sD+tOfVrd4DLZQxnt5vCqD+PX8qxkodTeDnbQydaOoWFyFXUbl43XcpL4Yexx/npWUJ71z81zK3tuP8AjWjcQpNMZrq/iLN/cy+KjKWCEgSTv6FQF/nWdl0N031KDmYtkuxPfmgeZj19SaviW3AGy1z7yOT/ACxVq11BY5BvtYNnqqYIzQ4+QXMUW0khwu9j6AZNWE0W7lx/o0vPdhgfrXYxTLKgZXVUPBwDgf4U7O5AA5bjbg9DWbk+xaRy8XhW4fPmKiY9Wz/LNXYvC0YG6SZMD+6uf1rdVW3bg5PTp+vWowkgXdvwcAbTyF4+lLmYWRTi0CxjIzG0hI6E98e2K0orOzhC7bSIdt20Zpql1xuYrk8buM09m8vhWOCPm5/z6UtWPQurIqqwyMDjjp3q0lymTmZ48DspP9aymd94AABJ4JOAR/PP+NOLFUcEqAD83fnnPB//AF0rAbS3UHAa6kb2CHI+uTUhurFT/r53z0wAKxVcq4zGyjkkEfmakR43BwflHJCL0+vpTFY1RqFsv8E5AOCfMGf5UpvYzyFkwefv9P0rKRD97OF9sDI//V/KpAkjjdnYvT07/wD6qYrF8Xcgwd3H4enrS/aJNu4n5ie/p7VmDMa8bsIfXPB9T+FM/tBYxjIdycHDc/55FFgujZ89lzlcY9f89KVrtgu47AOc5boP8isGO9nmDJbxMoB7Hrx9PzqSO0eRi8r7yecZzTsK5pvqcadCz+m3OKQXdzM3yIsYAzlielRRRRwr8ibVPc/eFPSNUYNufK+h/D0xQFiTbKf9dcsMdQvy4pwEaE9WbrhgSTUbxnjEhxxgeaR82fT/ABpx3KAvy/RmwMZ96LhYlFxhtuShHv8A4GlNw6ths89Cc8/pUTAoygc5B46/kKUgMA5T5W7kA5/Xj/P0pABugFOWGPUHJ4/pWbrclu+kXLXEcbtHG7JnnDY4NaISNsKCN2OB8v8Ahkf/AFqxfEpgHhu8YMpO0DA92HOfx+ntTSA8vnuLgKy7+CD1HUelZ5XmtJznAc5ABxx05FU5ZGUjAGB0yorVWQnqV8UVYMgf7wGf92o5CFAOzI6ZwcZpiIqSrVpbPezmKGNmbGQFUt/KrMmj3Uf3oZBxnBicf+y0AZuAB70lWjasMg4BHqwH88U02xBxn8iD/I0AV6tIXl2NjeF4IJxzUYt3xnafyNSQxvExJAwRj5hSGQsDkGtSxlURlCenIqr5RIwuM5z1FS6dc/2XfrcSW5lKAhRuxg+v86TV0NOzuX9y/wB6gsMV0UGqWt/atMjIoQZdZB936/49K4BmlHyljwTyGqfZ2KVS5eu51MKwqcnPzfSmrhY8AYOKrRxtkYGRnrVog/KD0rRaIzbu7kU0TrGJAcgdsdK7DwVdg2s9vgkq4cfiP/rfrXPJbMvmxbDsdcqcfpV/wfeCzv5t+4qYThVHJIIx+metXHRmU/eiddfWZB8/Hyt1HpVLZkgAAk8DFWbjVZLhDGqBI25Izlj6fT9frSaTvuNYtkHaQO30HJ/QGnK19CI3S1Ny60a0DR+Zb28rqio5aMHoMdcVnXHhjSbnObGFCRjKKFP6V0kyh3yuAPrUJTGelbxSsc7k7nINAtqxgCKoj+UADjAo3r14q9r0eyZJwPlI2sfft+n8qxzJ1yfesWrM6Iu6LRZQDzjvSb+OucVU80KTnjjHOaPM4GSPXntUlFoyDvn86QSY4qoX4zn86PM4JzmgC2ZM/wD1jTS+eATVYOTxQZMYySDQBIyI3JGT7qv+FM8mLpsTHun+FN3d+po3kdaBh9nixwkX/fJ/xpfs8QGTGv4E00ydMkmjfz1FACtDEAcQ5+jf4mk2Rg/6g9OnH+NIW5zxzSeaM4POKAAxW55Nuo+qZp4itwOI1Uem3FN3Z5wPrSmTHTH45osO5NEpWJF44AHWpOeuR+dMyOgpTXIzrQvPt+dBDen6im96M0hi8+n8qBn+6aQHmlzQAvX+E0nOeh/KigfWgA79Kp3h+ZB71byR3qldnM6j0FAEVKKTNAPFADqcDTKWkA8GpYY2mlWJANzHAqDNWLVd7uN23ETnPp8pqoq7sKTsrkGsQrb28YWZJdxyTGcgde9Y4Na2vrFG0AhULGyl1AGBgk4/TFYwNatWdjOLurkgNOHSowacDQBYj+5kdc8U8+nJ9s1VMjAgA8U5ZGJ4yAa2i9DGe5MRz069qAnQ4/8AHqFJPUfjT8E8DmqIIjGuRn5cn86kSe4gGIr6eJRzt38D6AipY1eKZZFYq6gjrxz7d6RofNSNJGLJE5dQe7ep9fxqWNDpLzUUtwTfToj8B8KM/jirMGtanFCiNIr8cSMpDMPwIBqrLAbpg07M+3plsAfgOM0v2UOq/LnYMLkk7R6UWDQvHX9V6N5WBjKkHOPz/nWddXus3hO68WNW6hFxx6VKIAAQFUD24p6xYOMcdPrTEZMdm8b7soWPVipJz9Sas+S/XPzdwKvCFcAA0phXIwBmlYfMUFibjNL5TZ5JFaAgGOgpfLUds0Bcz1iBHOf8Kd5IxjrnpV8RdBt4oCAEAcHPpQFx+mt5UgBzjsBmtwwEg8ntyO/5Y9+/amadaBEDmPk9zya0TEG2hg3fBzwfrWErXNo7FJUCKHdRkDOScZH5/X8vyeoY/KY8bR2wPw/z9PargjO08KeScDj/AD2+tO8k73GwqG5G4/5xxipKuV2Vmck5HOfl9O3T/PvSRogLEKpOcKGT/PtVoQqTl2APGGY5x7GkK7XB6FTgKCOn+RQFyBo38s7W+XphW47cmlWJVCxgk4HHGPXH0/8Ar1MpKIxd3UEc/Tv/AJ+lRNfxxHLHc/OcDOfxosxXHeTuc7hnvwcj/PT8qkHyISeFVeDjn/P+NUBqU7MBbxqOeuOT+FKun3l0wMsh2nqSearl7i5uwl1ceW3ySo2QQ+0HLc5HOPf07U0X1zKFRUVGPG5R1+uKuxaZDBh5CW5B2gcD8PWrUaxgbVVQQP4EH60tEGplrYTzrmaXIAAABz/XtV+CxigyTG7MTnLHv9P/ANfWrZ4fJdQMDrzz6dfenElXZk4ZsBmxyB16c/5NFx2IVQl5GZfl6AnkdfQYJ4z7elPTcq5YFgB/EhPP+f8APSlMuQTgZ5yRnJ49ePWnqARyOvPBx3pAN3rHgBVHAxz0P58f59aczo7ncFGBgN68dqfvjwC2Rg9/8/ypFAU/c4YdNvPrj3pAI0yhJACFycKWOM5wBz7enXge1SxSAt8sqsAMY4IB5phQFtxYADpz938e349cVHsCl2KKCDgEDnH50ATOSJG3BfLKg5DEkn6HoOnemsCHDMrKuM4yM5Hp7Z6/SqM19HbfKsrOx6c1mXF9LN+83bQuPyqlFsTZrzalHFxD8vI3HILeuKwtZuXudGu0J5MRbOfxP8qRpXBwChBXJzwfz/z1pCyujDysKRgqDjP/ANarSSJu2eeckEx4JwcjHbiqswJJz1zV28jeyu5rY5Gxzhsdv/1Yqgzbjzk0yizsaWCKKJS8khBJA7en8/0qbVo1t2gtAFzDH85H94/5/Wq9rdz2y/uZCp/P8aibfNLklnkkbv1YmmTY7Twx+60VFKlfMZpM+vOPw6Vr+YGIQP3yWPUflVSzhW2s44A24xoFOe/Snl1mCfOu49gOc57Y6kk/X+oSyw1wclflyDxzgdqgkSGcky26SLnugJ9O9MlKEE7snb94k8n8KYW5UPuzjjBz+f8AnvTAY9lYvhjZ24Bz/ABj8gP89KY2kaeVZhbgE9MMy4/IipHwTuDc4+pxigzK4IGcjPXnHqaA1K76TaFQMyog4+WVuT36n/PNRLotmoBaSUnnO5UP81qyZcEkA4zjr14/+tSeYCwIB547cfgetGgamHd+Hc4aCZGJOSH4H6fyrMu7F7GdYX8skqGyhJH6iurLMxJ6Lz0HSsLX1xeIR/zz7/U0mikyj0wFICk8VJap5l5CgwQzgVXLZ5569KktpBHdRMc4VwT9M0IHsdrLpCxSNz92OMn6llH9TXIaZMLa93MSBtIrtZ74GC8nIwWwV9goJ/ntriLSIzXRA7KTWk0YUm9bm4b+NiBkkDPXrV6w1aG1neaWSZcRnZsTdknjB7//AKqwWgZT6AdqBvXvx7GkaG7B44kW5/fs5i3cqU6D+db3/CV6RKgxfquf9hj/AEriQ+MAgH3NPRk6FQPaqjNoiVOMja1rXreQRRWM3mx5LSloyCT2xkD37VnJfo4wysD6ZxUOyM+mRzxSGJTx29hSlK44xSVi59oU45znj1x/hS+arDqMjrzVHZt9aAxznPvwKRReLg9Bx35xS7wDyMemP51SEmOvf1qQSdg34UCLAOAcd+ue1IS3AUA/U4xUPmHtjrn6UoZj1OM9xQA8MwHzc/j2pxODjn61GG56gj3NL0OSc8560DHk5Y4zj60vNN3dCcf40u4EDOc/SgQE7epoMik7Rye3HNAkAzz2pRt55H40AHOTjr+hppLNyGT/AIFThtzjj27UoPsPzoAsjOeopcnP/wBemg0uR61yM7ELzR+FJmjg0hi85ozjrTaM0AOzSHpRRigBelULg5uD9KvZ96z5Tmd++OKAG54pRTaM0AOzTs0zNLQA7NWrG5NvcbhF5pKlQvrmqWcVfs0WS0uAd3OAMMRnALYyPpV01eRE3aOpna19publNypGyrjbtxtHGBWcLO4P8Sj/AID/APXrav3DX07ejsBjtg1Dhff6HvW6ijBza2MwWk4/5aoP+A//AF6eLObr5y4/3P8A69aSgZwQPypQ2MdPwp8qJ52U0tSFG5iSO+MVIIAD0q197JGcHnmlQKQNoB9CDVWJuyuIQRx196kSPnHPuamyBz09KXHy5xyOelAEeOwGDnNOCk4x+IowQO3T0p6cn3oEAjwDx+IpQg/KgA9CR06U/IAO7r3wKAE2A8k/XIpdi5GGFOJAOAc8daVfm6DcxOMY70DsNCrwNwpdiA8j8qsJa3Eh+SIkc9Rj61ZTS5ZuSzbep2Ln/P0qXJDUWUAqA46/hT1j3/cG49gK2Y9OgjI3hix6q+fyxircXlxlfLULxhgOgOOn16VDqFqBiRaXcTAHyti+rHtWnbaXBEqtJl2PTbjp+X1q4zpJhQQAep/OkkAAJzszzkYOPfp9OtS5tlKCQ8BFHCMQDnp27mnA4l9QTzt79v8AGqb3UKbVa4br361Um1RFZvKzIo+oFSotjbSNV2Vn4YgYxtP5jH5etMeZYiS/TB5Ldf8APpWIb68uAUQEg/3RkkdPx605dPuJQXdsrjPykH19KrltuLm7F59VhhyAHcE8YIGKrHUrqYhYEOe2BkgVNFYWqAZSR3xu5Ujj/wDXWgirAqfuyoK8Aj/631/Ki6WwWbMhbS7lI+0yFR23n+lWotOjRgsiFzlu+BxV6MKV3rGehOM/4/54pN+wY4Q4Jx1I/Lr3/wAaXM2PlQR/uiEB2qBjaB1/E81IpQIzE5wcbnH+c1EZCEUPJg7uQGwCfr/npSAAqM7ti4PLdf196kZYEu6RsMpYNjn1/oaNikK2Pl9Dkew4/Oq8rFU2/IBnJXJGfy/CnLPmQBACAOTzzz/ntSGWc7QQqgg9Rgnb/n0pwUgFdrEHjdgcj0A/GoPPdc7YhhRktn29qEl2KMkNnC/KCf8A6/50ATckOQ8e4H7uOffr+dIj5jzngnjJI5/zmkSZlAByuVJOc7ieR2+v+RUfnxeXJIRgbgGPGTz3A/yaAJWV2fcnODgEj1p7u42gYDE4yCMHA9+fas651CCIAnDNjIw2cj1GPc/Wsu41FpR5a/KoPAAOB/KmotibSNm5v1gyFbJJHscD2FZVzfSTFvnYKBx3Gfb2rPVwXy75LHPByR/9fmntwCACQeOfetFBIhyuSF8sckFiOnHNNVgpyEXPT6fjTFcMNgGD1GOuabkByF2sB7HH+FVYkkLlpMBRn+Js9aAzFir7d2OmeppMIIwQ5AI7HjPembtr+VwWzjHv/XrRYDM1vSn1AebCB5yDpwNy+ma4+ZXicpKjI46qwwRXdTXJijIVSX6FwevXPX/IrCvIVumzKrMfrRYpM57fjpXQaHYMkq3k/wApX/VoeD06n07VW/s+FWJWPGPfNWrd3hfhyV64PeizHc3jMd3DLuB4yMEen9KQlSoLldo4PGRj/OfyqpFLwDkhsDP1H8uP896sx7AoEjEx7huUDbkd16cdP/rUtREisduBu3H14B49/wAOe9MMpY/N3b+In9KQ7uXBJI4JxgenPHpnrUPnPt2jjHTLZyfwNAEzO3zDAIOOpz24qPeuRgkZOTgDGe/4Ug4yFXdnnnryP8M1HuCuQhKqehKgnoPT+eaLjHMxBPfqM9KTnGRg9uvP5UNt2KQVAxjk44FRnYTkHjOQAT+XvRcLDyzncvUY9c4+lZWsK5giduqkqec/56VoHcRu3PuPQcmoZ4BNA6ngOcAkE4Pt39KLgc6T8uTye1AP4USK0MjRuMEHB54qLdz64oGbcupSy2XknGDjc2eSPSk0uInzZf8AgI4/E/0rMRyQAOSelblnGIoQg4Yclvf/AD/KqvciyWxOVIH3TmmGM5zjntU6qDwcg9acVIyduB34xTFYqiInnGOcdKNvGMDNWSpDYwcn2qNlIJGD16YzQBHt5HNLg4B/pS4BJ/8A1UDp1AH8qBAFP8WfzpMYPPWnkBlwxUj0PNKuCcnOKAI+p9xSlMDin7Vx64owOeM5oEM5xwT9MU7J/wAKXGT96kKDPSmAqseRnkU7PXpTCWIHB/XFAAJAB6+tAD1J/wD1U8Ybp1qPY2etKFI6Z4oAk44xj60Y9+fSozxxnn60u5h1Iz7DmiwiQKvQEZ74owP7uaZl8g4JB64p3I4ww/CmBbX+lONFFcbO0XAxTcD0oopDEx/Og9BRRQAdqaScdaKKAFHQ1nMczv8AWiigAPekPSiigAHUUrdaKKAE7Vqab/qB/wBdf/ZTRRWtL4jGt8JVuAPtE/A+8386jb73+fSiit1sc73FHGcdlpR/x77v4sDn8aKKYhQcgZ5qY/1P86KKAFbiM49KVuGUDpyaKKAGsMOnuKav8P40UUDJH4jYjr61GCfM6nnGfyFFFICW35kGectzXQ2MUe6M+Wud69vaiipkVEuH5LJSnyn5eRx/epifMJS3JHAzRRWJsRz/ACg7eMcDH+63+FC/6iX2HH50UUARzMxbBYkAnGT05rKuZH89jvbIJxzRRVRJZUJJlXJq3D/rD+P9aKK06GfU3LGNJJ1R0VlKfdYZH3RU7EhXwSKKKxkbIRicsc85Iz+dSPxcBRwPNHA/GiipGO8tAAQig7sZx2J5qtDxPKo6eZ0/AUUUwLM6rlflHX0pLhFQTFVCkFsEDFFFIBsYAPA6KT/Knuq/Z3G0Y5GMdgRiiigCC5H7tB2MgH5mq8h2Gz2/LuPzY4z8w60UU0Jktmi+VnaMhnAOOgw1VpZHa2uWLsSCcEn6/wCA/KiihbgzGmZnZdzFsqM5Oc9KeI48N8i9MdPrRRW6MmNZQJQAAB6flSsqieTAA4B6fSiigBgAIbP+eRTIiWMhJJIBAJ/4D/ifzoooAIifs4b+LYOfyqMEsVJOTtJ59cCiigChL9xD35qKUf6OT3DH+VFFMCNQNx4pygeSTjnJ5oooGW7T55U3fNyo5549KlbgZHByB+FFFSMWYkSMc8hMD9KaWbyz8x6Hv7GiikAshKRRlCVJIzjjPJpiMTYkkkn5ufxNFFAxMApyAeM8/wDAqbGSVySSdo5P4UUUgCQA7cjqy1UuflcKvC7QcD1oooAoa0iiLcFG7cOcc9BWIeooopoZZsf+Pj6CuriAKnPPzDr9aKKpEslIHTAxg/ypCAJCAAB6fjRRQIe6KIYCFAJHJx1qLAyBjjn+dFFAMRgNx471EepPvRRTJEX73/AR/KrDKv2ZDtGSgycUUUxEUnylsccdqTJ9aKKAFUDceBz1p/dh2GP5UUUAB4YY70PwCR7UUUAMIwBij+575oopiHDgqe5AqWTll+lFFADZeJABwMDgU7ufrRRTQj//2Q==;" vertex="1" parent="1">
          <mxGeometry x="260" y="160" width="321.48" height="185" as="geometry" />
        </mxCell>
        <mxCell id="7aMx-vudad1-3cqpWfX1-6" value="InformaÃ§Ãµes do cliente" style="rounded=0;whiteSpace=wrap;html=1;fillColor=#eeeeee;strokeColor=#36393d;" vertex="1" parent="1">
          <mxGeometry x="280" y="420" width="120" height="40" as="geometry" />
        </mxCell>
        <mxCell id="7aMx-vudad1-3cqpWfX1-8" value="Contato do cliente" style="rounded=0;whiteSpace=wrap;html=1;" vertex="1" parent="1">
          <mxGeometry x="460" y="420" width="110" height="40" as="geometry" />
        </mxCell>
        <mxCell id="7aMx-vudad1-3cqpWfX1-9" value="Finalizar despache" style="rounded=0;whiteSpace=wrap;html=1;" vertex="1" parent="1">
          <mxGeometry x="370" y="500" width="114" height="40" as="geometry" />
        </mxCell>
      </root>
    </mxGraphModel>
  </diagram>
</mxfile>
